<?xml version="1.0" standalone="no"?>
<!DOCTYPE svg PUBLIC "-//W3C//DTD SVG 1.1//EN" "http://www.w3.org/Graphics/SVG/1.1/DTD/svg11.dtd" >
<svg xmlns="http://www.w3.org/2000/svg" xmlns:xlink="http://www.w3.org/1999/xlink" version="1.1">
<metadata></metadata>
<defs>
<font id="kaleko_205_roundbook" horiz-adv-x="385" >
<font-face units-per-em="2048" ascent="1638" descent="-410" />
<missing-glyph horiz-adv-x="552" />
<glyph horiz-adv-x="0" />
<glyph horiz-adv-x="682" />
<glyph unicode=" "  horiz-adv-x="552" />
<glyph unicode="&#x09;" horiz-adv-x="552" />
<glyph unicode="&#xa0;" horiz-adv-x="552" />
<glyph unicode="!" d="M88 86q0 44 31.5 75.5t75.5 31.5q41 0 71.5 -31.5t30.5 -75.5q0 -41 -30.5 -71.5t-71.5 -30.5q-44 0 -75.5 30.5t-31.5 71.5zM123 1483q0 29 20.5 49t49.5 20t49 -20t20 -49l-20 -1100q0 -20 -14.5 -34.5t-34.5 -14.5t-35 14.5t-15 34.5z" />
<glyph unicode="&#x22;" horiz-adv-x="473" d="M102 1165v340q0 20 14 33.5t34 13.5t33.5 -13.5t13.5 -33.5v-340q0 -20 -13.5 -33.5t-33.5 -13.5t-34 13.5t-14 33.5zM276 1165v340q0 20 14 33.5t34 13.5t33.5 -13.5t13.5 -33.5v-340q0 -20 -13.5 -33.5t-33.5 -13.5t-34 13.5t-14 33.5z" />
<glyph unicode="#" horiz-adv-x="1269" d="M25 580q0 23 16 39t39 16h285l57 264h-342q-23 0 -38 16t-15 39t15.5 40.5t37.5 17.5h366l99 483q4 23 25 40t44 17t36.5 -17t8.5 -40l-98 -483h262l99 483q4 23 25 40t44 17t36.5 -17t8.5 -40l-98 -483h252q23 0 39 -17t16 -41q0 -23 -16 -39t-39 -16h-281l-57 -264h338 q23 0 39 -16t16 -39t-16 -39.5t-39 -16.5h-359l-106 -483q-4 -23 -25.5 -40t-44.5 -17t-36.5 17t-8.5 40l111 483h-264l-109 -483q-5 -23 -24.5 -40t-42.5 -17t-35.5 16.5t-7.5 40.5l106 483h-264q-23 0 -39 16.5t-16 39.5zM479 635h262l58 264h-264z" />
<glyph unicode="$" horiz-adv-x="1210" d="M82 215q0 29 20.5 49.5t49.5 20.5q22 0 41 -13q181 -141 423 -141q159 0 267 83t108 210q0 98 -73.5 171t-192.5 107l-264 66q-152 39 -248 142t-96 237q0 155 118 265.5t300 129.5v72q0 29 21 50.5t50 21.5t50.5 -21.5t21.5 -50.5v-72q194 -17 369 -129q32 -21 32 -59 q0 -29 -20 -49.5t-49 -20.5q-26 0 -41 12q-167 109 -373 109q-147 0 -243.5 -73t-96.5 -185q0 -86 66.5 -150.5t173.5 -93.5l256 -65q167 -42 271.5 -154t104.5 -260q0 -170 -127.5 -290t-322.5 -140v-84q0 -29 -21.5 -50.5t-50.5 -21.5t-50 21.5t-21 50.5v84 q-241 23 -424 164q-29 19 -29 57z" />
<glyph unicode="%" horiz-adv-x="1226" d="M82 1290q0 117 82 199t198 82q64 0 120.5 -27t95.5 -74q48 -61 129 -61q52 0 94 28.5t61 73.5l4 11q10 30 49 30q32 0 47.5 -23.5t4.5 -51.5l-609 -1461q-14 -32 -51 -32q-31 0 -45.5 25t-1.5 57l514 1239q-52 -9 -67 -9q-19 0 -64 9v-15q0 -115 -82.5 -196.5 t-198.5 -81.5t-198 81.5t-82 196.5zM197 1290q0 -69 48 -118.5t117 -49.5t117.5 49.5t48.5 118.5t-48.5 119.5t-117.5 50.5t-117 -50.5t-48 -119.5zM584 244q0 116 82 197t198 81t198.5 -81t82.5 -197t-82.5 -197.5t-198.5 -81.5t-198 81t-82 198zM698 244q0 -70 48.5 -119 t117.5 -49t117.5 49t48.5 119t-48.5 119t-117.5 49t-117.5 -49t-48.5 -119z" />
<glyph unicode="&#x26;" horiz-adv-x="1361" d="M82 487q0 152 81 277.5t214 189.5q-55 48 -88 120t-33 147q0 145 102.5 247.5t247.5 102.5t247.5 -102.5t102.5 -247.5t-102.5 -248t-247.5 -103q-159 0 -270 -111t-111 -272q0 -159 111.5 -273t269.5 -114q159 0 272 114t113 273v281q0 101 71.5 172.5t172.5 71.5h16 q29 0 49.5 -20.5t20.5 -49.5t-20.5 -49.5t-49.5 -20.5h-16q-44 0 -74.5 -30.5t-30.5 -73.5v-524q0 -43 30.5 -74t74.5 -31h16q29 0 49.5 -20t20.5 -49t-20.5 -49.5t-49.5 -20.5h-16q-79 0 -145 48t-86 118q-66 -90 -171 -145.5t-227 -55.5q-107 0 -203.5 41t-167 111 t-112 167t-41.5 203zM399 1221q0 -87 60.5 -151t146.5 -64q87 0 147 64t60 151q0 89 -60 152t-147 63q-86 0 -146.5 -63.5t-60.5 -151.5z" />
<glyph unicode="'" horiz-adv-x="299" d="M102 1165v340q0 20 14 33.5t34 13.5t33.5 -13.5t13.5 -33.5v-340q0 -20 -13.5 -33.5t-33.5 -13.5t-34 13.5t-14 33.5z" />
<glyph unicode="(" horiz-adv-x="573" d="M164 592q0 255 59.5 503.5t171.5 454.5q16 37 56 37q36 0 52.5 -29t-1.5 -61q-101 -190 -150 -423.5t-49 -481.5q0 -528 199 -903q18 -32 1.5 -61t-52.5 -29q-40 0 -56 36q-112 206 -171.5 454t-59.5 503z" />
<glyph unicode=")" horiz-adv-x="573" d="M70.5 -372q-16.5 29 1.5 61q198 373 198 903q0 532 -198 905q-18 32 -1.5 61t52.5 29q39 0 55 -37q112 -206 172 -455t60 -503t-60 -502.5t-172 -454.5q-16 -36 -55 -36q-36 0 -52.5 29z" />
<glyph unicode="*" horiz-adv-x="733" d="M154.5 1247.5q5.5 20.5 25.5 30.5l111 49l-111 49q-20 10 -25.5 30.5t5.5 39.5q10 20 30.5 25t40.5 -7l97 -71l-13 120q0 23 15 38.5t37 15.5t36.5 -15.5t14.5 -38.5l-15 -120l99 71q20 12 40.5 7t32.5 -25q10 -18 4 -39t-26 -31l-113 -49l113 -49q20 -10 25.5 -31 t-5.5 -41q-11 -19 -31 -23.5t-40 7.5l-99 70l15 -119q0 -23 -14.5 -38.5t-36.5 -15.5t-37 15.5t-15 38.5l13 121l-97 -72q-20 -12 -40.5 -7t-30.5 25q-11 19 -5.5 39.5z" />
<glyph unicode="+" horiz-adv-x="1390" d="M86 592q0 29 20.5 49.5t49.5 20.5h471v471q0 29 20 49t49 20t49.5 -20t20.5 -49v-471h469q29 0 49.5 -20.5t20.5 -49.5t-20.5 -48.5t-49.5 -19.5h-469v-471q0 -29 -20.5 -49t-49.5 -20t-49 20t-20 49v471h-471q-29 0 -49.5 19.5t-20.5 48.5z" />
<glyph unicode="," horiz-adv-x="454" d="M72 90q0 43 30 74t74 31q43 0 74 -31t31 -74v-137q0 -71 -44.5 -123t-111.5 -55q-19 0 -30 11t-11 30t11 30t30 11q27 0 48.5 26.5t21.5 59.5v45q-6 -4 -19 -4q-44 0 -74 31t-30 75z" />
<glyph unicode="-" horiz-adv-x="952" d="M131 592q0 29 19.5 49.5t48.5 20.5h557q29 0 49 -20.5t20 -49.5t-20 -48.5t-49 -19.5h-557q-29 0 -48.5 19.5t-19.5 48.5z" />
<glyph unicode="." horiz-adv-x="454" d="M72 88q0 43 31 74t75 31q41 0 72 -31t31 -74q0 -42 -30.5 -73t-72.5 -31q-44 0 -75 30.5t-31 73.5z" />
<glyph unicode="/" horiz-adv-x="933" d="M115 66l606 1456q10 30 49 30q32 0 47 -23.5t4 -51.5l-608 -1461q-14 -32 -51 -32q-31 0 -45.5 25t-1.5 57z" />
<glyph unicode="0" horiz-adv-x="1243" d="M82 768q0 136 19 253.5t60.5 219.5t103.5 174.5t152.5 114t203.5 41.5t204.5 -41.5t153.5 -114t103.5 -174.5t60 -219.5t18.5 -253.5t-18.5 -253.5t-60 -219.5t-103.5 -174.5t-153.5 -114t-204.5 -41.5t-203.5 41.5t-152.5 114t-103.5 174.5t-60.5 219.5t-19 253.5z M225 768q0 -668 396 -668q397 0 397 668t-397 668q-396 0 -396 -668z" />
<glyph unicode="1" horiz-adv-x="688" d="M90 1280q0 46 41 66l322 192q21 14 43 14q29 0 49 -20t20 -49v-1428q0 -29 -21 -50t-50 -21t-48.5 20.5t-19.5 50.5v1299l-229 -131q-18 -11 -37 -11q-29 0 -49.5 19.5t-20.5 48.5z" />
<glyph unicode="2" horiz-adv-x="1193" d="M82 1055q0 218 149 367t367 149q219 0 366.5 -140t147.5 -356q0 -114 -52 -219t-134 -182l-559 -535h628q29 0 49.5 -20t20.5 -49t-20.5 -49.5t-49.5 -20.5h-805q-29 0 -49 20.5t-20 49.5q0 32 24 53l691 659q58 57 95.5 133.5t37.5 159.5q0 158 -105.5 259.5 t-265.5 101.5q-157 0 -266.5 -110t-110.5 -271q0 -29 -20 -49.5t-49 -20.5t-49.5 20.5t-20.5 49.5z" />
<glyph unicode="3" horiz-adv-x="1206" d="M78 418q0 29 20 49t49 20t49.5 -20t20.5 -49q0 -144 105.5 -231t279.5 -87q173 0 276 86.5t103 231.5q0 144 -108 228.5t-271 84.5h-59q-29 0 -49.5 20.5t-20.5 49.5t20.5 49t49.5 20h59q140 0 234 77t94 206q0 130 -88 206.5t-240 76.5t-241 -77t-89 -206 q0 -29 -20 -49.5t-49 -20.5t-49.5 20.5t-20.5 49.5q0 188 129 303t340 115q212 0 341.5 -115t129.5 -303q0 -221 -203 -346q254 -129 254 -389q0 -202 -145 -327.5t-377 -125.5q-233 0 -378.5 125.5t-145.5 327.5z" />
<glyph unicode="4" horiz-adv-x="1255" d="M37 420q0 25 18 47l764 1055q20 30 60 30q29 0 49 -20t20 -49v-998h176q30 0 50 -19t20 -48t-20.5 -48.5t-49.5 -19.5h-176v-297q0 -29 -20 -49t-49 -20t-49.5 20t-20.5 49v297h-703q-29 0 -49 20.5t-20 49.5zM233 485h576v795z" />
<glyph unicode="5" horiz-adv-x="1206" d="M78 485q0 29 20 49.5t49 20.5t49.5 -20.5t20.5 -49.5q0 -158 113.5 -271.5t271.5 -113.5t268.5 113t110.5 272q0 162 -110.5 275.5t-268.5 113.5q-162 0 -272 -126q-23 -29 -62 -29q-32 0 -53.5 22t-21.5 54q0 17 118 675q5 30 23 48t45 18h526q29 0 49.5 -20.5 t20.5 -49.5t-20.5 -49t-49.5 -20h-467l-88 -461q113 74 252 74q106 0 203 -41.5t167 -111.5t111 -167.5t41 -204.5q0 -106 -41 -202t-111 -166t-167 -111t-203 -41q-143 0 -263.5 69.5t-190.5 189.5t-70 261z" />
<glyph unicode="6" horiz-adv-x="1261" d="M82 731q0 140 24.5 265.5t73.5 230.5t119 181.5t166.5 119.5t210.5 43q212 0 352 -96q29 -22 29 -58q0 -29 -20.5 -49t-49.5 -20q-26 0 -43 14q-109 74 -268 74q-107 0 -192.5 -54.5t-141 -148.5t-86 -214.5t-35.5 -258.5q62 114 178.5 182t257.5 68q142 0 262.5 -69.5 t190.5 -190t70 -263.5q0 -142 -70 -262.5t-190.5 -190t-262.5 -69.5q-154 0 -281.5 81t-191.5 214q-102 219 -102 471zM274 487q0 -159 112.5 -273t270.5 -114q159 0 269 114t110 273t-110 273t-269 114q-158 0 -270.5 -114t-112.5 -273z" />
<glyph unicode="7" horiz-adv-x="1103" d="M45 1466q0 29 20.5 49.5t49.5 20.5h874q29 0 49.5 -20.5t20.5 -49.5q0 -15 -6 -30l-586 -1409q-19 -43 -66 -43q-29 0 -50 21t-21 50q0 15 8 35l545 1307h-768q-29 0 -49.5 20t-20.5 49z" />
<glyph unicode="8" horiz-adv-x="1232" d="M82 418q0 259 260 389q-101 61 -154 143.5t-53 202.5q0 185 138.5 301.5t342.5 116.5t343 -116.5t139 -301.5q0 -120 -53 -202.5t-154 -143.5q260 -130 260 -389q0 -133 -73 -237.5t-194 -160t-268 -55.5t-268 55.5t-193.5 159.5t-72.5 238zM225 418q0 -145 111.5 -231.5 t279.5 -86.5t280 86.5t112 231.5q0 144 -112 229.5t-280 85.5t-279.5 -85.5t-111.5 -229.5zM279 1153q0 -131 96.5 -208t240.5 -77q145 0 241.5 77t96.5 208q0 129 -97 206t-241 77t-240.5 -77t-96.5 -206z" />
<glyph unicode="9" horiz-adv-x="1241" d="M82 1047q0 106 41.5 202.5t111 167t167 112.5t204.5 42q175 0 313.5 -105t186.5 -268q53 -168 53 -360q0 -146 -24 -276.5t-73 -239.5t-119 -188.5t-166 -124t-210 -44.5q-239 0 -377 119q-22 19 -22 53q0 29 20.5 49.5t49.5 20.5q25 0 45 -17q108 -90 284 -90 q101 0 183 50.5t137 139t88 203t43 248.5q-68 -102 -176 -160.5t-236 -58.5q-107 0 -204 41.5t-167 112t-111.5 167.5t-41.5 204zM225 1047q0 -161 111 -275.5t270 -114.5q158 0 270.5 115t112.5 275q0 159 -112.5 274t-270.5 115q-159 0 -270 -115t-111 -274z" />
<glyph unicode=":" horiz-adv-x="454" d="M72 88q0 43 30.5 74t73.5 31t74 -31t31 -74t-31 -73.5t-74 -30.5t-73.5 30.5t-30.5 73.5zM72 1096q0 44 30.5 75t73.5 31t74 -31t31 -75q0 -43 -31 -74t-74 -31t-73.5 31t-30.5 74z" />
<glyph unicode=";" horiz-adv-x="454" d="M72 90q0 43 30 74t74 31q43 0 74 -31t31 -74v-137q0 -71 -44.5 -123t-111.5 -55q-19 0 -30 11t-11 30t11 30t30 11q27 0 48.5 26.5t21.5 59.5v45q-6 -4 -19 -4q-44 0 -74 31t-30 75zM72 1096q0 44 30.5 75t73.5 31t74 -31t31 -75q0 -43 -31 -74t-74 -31t-73.5 31 t-30.5 74z" />
<glyph unicode="&#x3c;" horiz-adv-x="882" d="M49 592q0 34 39 65l598 428q19 19 45 19q28 0 49 -21t21 -49q0 -33 -29 -55l-553 -387l553 -387q29 -22 29 -55q0 -28 -21 -49t-49 -21q-27 0 -45 18l-598 428q-39 31 -39 66z" />
<glyph unicode="=" horiz-adv-x="1390" d="M86 420q0 29 19.5 49t48.5 20h1081q29 0 49.5 -20t20.5 -49t-20.5 -48.5t-49.5 -19.5h-1081q-29 0 -48.5 19.5t-19.5 48.5zM86 766q0 29 20.5 49.5t49.5 20.5h1079q28 -2 49 -22.5t21 -47.5q0 -29 -21 -48.5t-51 -19.5h-1077q-29 0 -49.5 19.5t-20.5 48.5z" />
<glyph unicode="&#x3e;" horiz-adv-x="882" d="M82 150q0 33 29 55l553 387l-553 387q-29 22 -29 55q0 28 21 49t49 21q26 0 45 -19l598 -428q39 -31 39 -65q0 -35 -39 -66l-598 -428q-18 -18 -45 -18q-28 0 -49 21t-21 49z" />
<glyph unicode="?" horiz-adv-x="1202" d="M80 1135q31 187 177 311.5t341 124.5q106 0 203 -41t167 -111t111 -166t41 -202q0 -199 -129 -347t-321 -174v-110q0 -29 -21.5 -49.5t-50.5 -20.5t-48.5 20.5t-19.5 49.5v176q0 29 20.5 49.5t49.5 20.5q158 0 267.5 112t109.5 273q0 159 -110.5 272t-268.5 113 q-141 0 -248.5 -93t-130.5 -231q-3 -27 -24 -46t-48 -19q-32 0 -53 24.5t-14 63.5zM492 88q0 44 31 75.5t75 31.5q41 0 71.5 -31.5t30.5 -75.5q0 -43 -30.5 -73.5t-71.5 -30.5q-44 0 -75 30.5t-31 73.5z" />
<glyph unicode="@" horiz-adv-x="1789" d="M82 768q0 218 107.5 402.5t292.5 292.5t403 108q217 0 402 -108t293 -293t108 -402v-209q0 -101 -71.5 -172.5t-172.5 -71.5q-75 0 -137.5 45t-89.5 113q-63 -71 -149.5 -114.5t-182.5 -43.5q-189 0 -322 132t-133 321t133 321t322 132q123 0 227 -60t164.5 -164.5 t60.5 -228.5v-209q0 -44 31.5 -76t75.5 -32q42 0 73 32t31 76v209q0 181 -88.5 334.5t-241.5 243.5t-333 90q-135 0 -257.5 -53t-210.5 -143t-140 -213.5t-52 -258.5t52 -258.5t140 -213.5t210.5 -143t257.5 -53q146 0 301 74q33 15 65.5 -5t32.5 -58q0 -23 -13.5 -41.5 t-35.5 -26.5q-169 -78 -350 -78q-218 0 -403 108t-292.5 292.5t-107.5 402.5zM573 768q0 -131 91.5 -224t220.5 -93q130 0 222.5 93t92.5 224q0 130 -92.5 223.5t-222.5 93.5q-129 0 -220.5 -94t-91.5 -223z" />
<glyph unicode="A" horiz-adv-x="1413" d="M41 51q0 17 6 29l596 1431q16 41 64 41q47 0 63 -41l596 -1431q6 -12 6 -29q0 -29 -19 -48t-50 -19q-48 0 -66 41l-129 321h-803l-129 -321q-18 -41 -65 -41q-31 0 -50.5 19t-19.5 48zM365 483h684l-342 822z" />
<glyph unicode="B" horiz-adv-x="1357" d="M123 70v1396q0 29 20.5 49.5t49.5 20.5h612q166 0 283.5 -117.5t117.5 -283.5q0 -107 -54 -190.5t-132 -127.5q106 -42 181 -146t75 -235q0 -119 -58 -219.5t-158.5 -158.5t-219.5 -58h-647q-29 0 -49.5 20.5t-20.5 49.5zM262 139h578q121 0 207 87t86 210t-86 210 t-207 87h-578v-594zM262 872h543q107 0 182.5 77t75.5 186q0 108 -75.5 185t-182.5 77h-543v-525z" />
<glyph unicode="C" horiz-adv-x="1529" d="M70 766q0 164 63.5 313t170.5 257q108 106 256 170q146 63 307 63h5.5h4.5q159 0 305 -62q148 -63 260 -176q20 -20 21 -49t-19 -49q-22 -20 -50 -20t-48 20q-99 96 -220 148.5t-252 52.5q-181 0 -334 -90t-240.5 -243.5t-86.5 -334.5q-1 -181 86.5 -334t240.5 -242.5 t334 -89.5q133 0 255 52t217 143q20 19 49 18.5t49 -20.5t19 -48t-21 -48q-116 -113 -262 -173q-144 -60 -303 -59h-5.5h-4.5q-161 1 -307 63q-148 64 -255.5 171t-171 255.5t-63.5 311.5z" />
<glyph unicode="D" horiz-adv-x="1486" d="M123 70v1396q0 29 20.5 49.5t49.5 20.5h454q209 0 385.5 -103t279.5 -279.5t103 -385.5t-103 -385.5t-279.5 -279.5t-385.5 -103h-454q-29 0 -49.5 20.5t-20.5 49.5zM262 139h385q171 0 315 84.5t227 229.5t83 315q0 128 -49 244.5t-132.5 201t-199.5 134t-244 49.5h-385 v-1258z" />
<glyph unicode="E" horiz-adv-x="1312" d="M123 70v1396q0 29 20.5 49.5t49.5 20.5h978q29 0 49.5 -20.5t20.5 -49.5t-20.5 -49t-49.5 -20h-909v-561h768q29 0 49.5 -20.5t20.5 -49.5t-20.5 -49.5t-49.5 -20.5h-768v-557h909q28 -2 49 -22t21 -47q0 -29 -21 -49.5t-49 -20.5h-978q-29 0 -49.5 20.5t-20.5 49.5z" />
<glyph unicode="F" horiz-adv-x="1234" d="M123 53v1413q0 29 20.5 49.5t49.5 20.5h942q29 0 49 -20.5t20 -49.5t-20 -49t-49 -20h-873v-561h731q29 0 49.5 -20.5t20.5 -49.5t-20.5 -49.5t-49.5 -20.5h-731v-643q0 -29 -20 -49t-49 -20t-49.5 20t-20.5 49z" />
<glyph unicode="G" horiz-adv-x="1599" d="M72 768q0 217 107.5 402t292.5 293t402 108q162 0 310.5 -63.5t261.5 -174.5q20 -22 20 -50t-20 -48q-22 -22 -50 -22t-48 22q-211 201 -471 201q-181 0 -334 -90t-241 -243.5t-87 -334.5q-1 -181 87 -334.5t241 -243.5t334 -90q132 0 252.5 53.5t216.5 147.5v395h-472 q-29 0 -50 20.5t-21 49.5t21 49.5t50 20.5h541q29 0 49.5 -20.5t20.5 -49.5v-494q0 -24 -19 -47q-113 -124 -266 -193q-150 -67 -321 -67h-5h-5q-160 0 -307 63q-148 63 -255.5 170.5t-171 256.5t-63.5 313z" />
<glyph unicode="H" horiz-adv-x="1431" d="M123 53v1430q0 29 20.5 49t49.5 20t49 -20t20 -49v-647h907v647q0 29 20.5 49t49.5 20t49.5 -20t20.5 -49v-1430q0 -29 -20.5 -49t-49.5 -20t-49.5 20t-20.5 49v643h-907v-643q0 -29 -20 -49t-49 -20t-49.5 20t-20.5 49z" />
<glyph unicode="I" d="M123 53v1430q0 29 20.5 49t49.5 20t49 -20t20 -49v-1430q0 -29 -20 -49t-49 -20t-49.5 20t-20.5 49z" />
<glyph unicode="J" horiz-adv-x="890" d="M30 140q-1 30 21 50q20 22 50.5 20t56.5 -28q85 -82 192 -82q118 0 199 78.5t82 206.5l-2 1100q0 28 19.5 48.5t47.5 20.5q31 -1 51.5 -21t20.5 -48v-1098q0 -185 -121.5 -302.5t-296.5 -119.5q-84 0 -161.5 33.5t-135.5 91.5q-22 20 -23 50z" />
<glyph unicode="K" horiz-adv-x="1259" d="M123 53v1430q0 29 20.5 49t49.5 20t49 -20t20 -49v-1430q0 -29 -20 -49t-49 -20t-49.5 20t-20.5 49zM353 769q0 28 22 50l712 713q20 20 48.5 20t50.5 -20q20 -22 21 -51t-19 -49l-664 -664l662 -666q22 -20 22 -48t-22 -50q-20 -20 -48.5 -20t-50.5 20l-712 717 q-22 20 -22 48z" />
<glyph unicode="L" horiz-adv-x="1200" d="M123 70v1413q0 29 20.5 49t49.5 20t49 -20t20 -49v-1344h838q29 0 49 -20t20 -49t-20 -49.5t-49 -20.5h-907q-29 0 -49.5 20.5t-20.5 49.5z" />
<glyph unicode="M" horiz-adv-x="1781" d="M123 53v1430q0 29 21 49t49 20q29 0 49 -20l649 -647l647 647q20 20 49 20q30 0 51 -20t21 -49v-1430q0 -29 -20.5 -49t-49.5 -20q-28 0 -48.5 20t-20.5 49v1262l-580 -582q-20 -20 -49 -20t-49 20l-580 582v-1262q0 -29 -20 -49t-49 -20q-28 0 -49 20t-21 49z" />
<glyph unicode="N" horiz-adv-x="1433" d="M123 53v1430q0 29 21 49t49 20q37 0 57 -26l921 -1264v1221q0 29 21 49t49 20q29 0 49.5 -20t20.5 -49v-1430q0 -29 -21 -49t-51 -20q-37 0 -57 30l-920 1260v-1221q0 -29 -20 -49t-49 -20q-28 0 -49 20t-21 49z" />
<glyph unicode="O" horiz-adv-x="1748" d="M72 768q0 163 63.5 311.5t170.5 256t256 171.5t312 64q217 0 402 -108t293 -293t108 -402t-108 -402t-293 -293t-402 -108q-163 0 -312 64t-256 171.5t-170.5 256t-63.5 311.5zM215 768q0 -181 87.5 -334.5t239.5 -243.5t332 -90q135 0 257.5 53t210.5 143t140 213.5 t52 258.5t-52 258.5t-140 213.5t-210.5 143t-257.5 53q-180 0 -332 -90t-239.5 -243.5t-87.5 -334.5z" />
<glyph unicode="P" horiz-adv-x="1347" d="M123 53v1413q0 29 21.5 49.5t50.5 20.5h593q201 0 344.5 -143.5t143.5 -345.5q0 -99 -39 -189t-104.5 -155.5t-155.5 -104.5t-189 -39h-526v-506q0 -29 -20 -49t-49 -20t-49.5 20t-20.5 49zM262 698h526q144 0 244.5 102t100.5 247q0 146 -100 248t-245 102h-526v-699z " />
<glyph unicode="Q" horiz-adv-x="1751" d="M74 766v5q0 160 62 307q64 149 171 257t255.5 172t311.5 64q218 0 403.5 -108.5t292.5 -294.5q107 -183 107 -398q0 -295 -186 -520l203 -203q20 -20 20 -48t-20 -48q-21 -20 -47 -19.5t-45 19.5l-209 201q-108 -90 -241 -139q-131 -48 -272 -48h-6h-5q-160 0 -307 63 q-148 63 -255 170.5t-170 256t-63 311.5zM217 766q0 -177 84 -326t227 -237q-25 64 -28 133q0 155 110 263t264 108q77 0 146.5 -28t116.5 -79l254 -250q143 176 143 416q0 135 -52 259t-140 214.5t-210 144.5q-121 52 -253 52h-5h-4q-178 0 -328 -90q-151 -90 -238 -244.5 t-87 -335.5zM643 336q0 -97 67.5 -166.5t163.5 -69.5q232 0 416 150l-252 252q-66 69 -164 69q-97 -1 -164 -69.5t-67 -165.5z" />
<glyph unicode="R" horiz-adv-x="1357" d="M123 53v1413q0 29 20.5 49.5t49.5 20.5h595q201 0 344.5 -143.5t143.5 -345.5q0 -155 -88.5 -280.5t-231.5 -178.5l246 -496q12 -18 12 -39q0 -29 -20 -49t-49 -20q-23 0 -42 12.5t-26 34.5l-264 528h-551v-506q0 -29 -20 -49t-49 -20t-49.5 20t-20.5 49zM262 698h526 q144 0 244.5 102t100.5 247q0 146 -100 248t-245 102h-526v-699z" />
<glyph unicode="S" horiz-adv-x="1210" d="M82 190q0 29 20.5 49.5t49.5 20.5q23 0 41 -12q190 -148 423 -148q157 0 263 91.5t106 220.5q0 107 -70.5 181.5t-189.5 108.5l-264 66q-153 39 -249.5 144.5t-96.5 246.5q0 171 139.5 291.5t341.5 120.5q245 0 451 -133q32 -21 32 -60q0 -29 -20 -49t-49 -20 q-26 0 -41 12q-176 115 -373 115q-144 0 -241 -81.5t-97 -195.5q0 -93 65.5 -160t172.5 -96l256 -65q168 -42 272 -156t104 -270q0 -121 -67 -224t-185 -163t-260 -60q-284 0 -505 168q-29 19 -29 57z" />
<glyph unicode="T" horiz-adv-x="1224" d="M20 1466q0 29 20.5 49.5t49.5 20.5h1045q29 0 49 -20.5t20 -49.5t-20 -49t-49 -20h-451v-1344q0 -29 -20.5 -49t-49.5 -20t-49 20t-20 49v1344h-455q-29 0 -49.5 20t-20.5 49z" />
<glyph unicode="U" horiz-adv-x="1431" d="M123 559v924q0 29 20.5 49t49.5 20t49 -20t20 -49v-924q0 -124 60.5 -229.5t165.5 -167.5t229 -62q187 0 319.5 135t132.5 324v924q0 29 20.5 49t49.5 20t49.5 -20t20.5 -49v-924q0 -161 -79.5 -298t-216 -216.5t-296.5 -79.5q-161 0 -298 79.5t-216.5 216.5t-79.5 298z " />
<glyph unicode="V" horiz-adv-x="1392" d="M31 1485q0 29 19 48t50 19q48 0 66 -41l530 -1280l531 1280q18 41 65 41q31 0 50.5 -19t19.5 -48q0 -17 -6 -29l-596 -1431q-16 -41 -64 -41q-47 0 -63 41l-596 1431q-6 12 -6 29z" />
<glyph unicode="W" horiz-adv-x="1951" d="M33 1460q-2 10 -2 19q0 21 13 43q19 30 54 30q25 0 44.5 -13.5t25.5 -35.5l371 -1206l370 1206q11 33 40.5 45t58.5 -0.5t39 -44.5l368 -1206l369 1206q8 22 26.5 35.5t42.5 13.5q34 0 54 -28q14 -20 14 -45q0 -9 -2 -19l-436 -1427q-15 -49 -67.5 -49t-67.5 49 l-371 1216l-371 -1216q-15 -49 -68.5 -49t-68.5 49z" />
<glyph unicode="X" horiz-adv-x="1298" d="M57 1513q20 39 62 39q36 0 57 -28l473 -666l473 666q21 28 58 28q40 0 60 -38q9 -17 10 -34q0 -20 -13 -38l-481 -674l481 -674q13 -18 13 -37q0 -16 -8 -34q-20 -39 -62 -39q-37 0 -58 28l-473 666l-473 -666q-21 -28 -57 -28q-41 0 -61 38q-9 17 -10 34q0 20 13 38 l482 674l-482 674q-13 17 -13 37q0 16 9 34z" />
<glyph unicode="Y" horiz-adv-x="1282" d="M38 1513q20 39 62 39q37 0 58 -28l483 -680l483 680q21 28 58 28q42 0 62 -39q8 -17 8 -34q0 -19 -13 -37l-528 -740v-649q0 -29 -20.5 -49t-49.5 -20t-49.5 20t-20.5 49v649l-528 740q-13 18 -13 37q0 17 8 34z" />
<glyph unicode="Z" horiz-adv-x="1312" d="M45 70q0 26 16 45l994 1282h-940q-29 0 -49.5 20t-20.5 49t20.5 49.5t49.5 20.5h1083q29 0 49.5 -20.5t20.5 -49.5q0 -25 -17 -45l-993 -1282h940q29 0 49.5 -20t20.5 -49t-20.5 -49.5t-49.5 -20.5h-1083q-29 0 -49.5 20.5t-20.5 49.5z" />
<glyph unicode="[" horiz-adv-x="575" d="M164 -283v1749q0 29 20 49.5t49 20.5h228q29 0 49 -19.5t20 -48.5t-20 -48t-49 -19h-158v-1616h158q29 0 49 -19.5t20 -48.5t-20 -48t-49 -19h-228q-29 0 -49 19t-20 48z" />
<glyph unicode="\" horiz-adv-x="933" d="M113 1477q-11 28 4 51.5t47 23.5q39 0 49 -30l606 -1456q13 -32 -1.5 -57t-45.5 -25q-37 0 -51 32z" />
<glyph unicode="]" horiz-adv-x="575" d="M45 -283q0 29 20.5 48.5t49.5 19.5h157v1616h-157q-30 0 -50 19t-20 48t20.5 48.5t49.5 19.5h227q29 0 49.5 -20.5t20.5 -49.5v-1749q0 -29 -20 -48t-50 -19h-227q-30 0 -50 19t-20 48z" />
<glyph unicode="^" horiz-adv-x="1103" d="M111 774.5q-7 26.5 6 52.5l375 689q22 37 59.5 37t60.5 -37l375 -689q13 -26 6 -52.5t-32 -41.5q-28 -12 -54 -4.5t-39 33.5l-317 596l-315 -596q-13 -26 -39 -33.5t-54 4.5q-25 15 -32 41.5z" />
<glyph unicode="_" horiz-adv-x="1062" d="M0 -186h1186v-52h-1186v52z" />
<glyph unicode="`" horiz-adv-x="718" d="M178 1534q7 26 33.5 38t52.5 1l254 -121q14 -8 21.5 -22.5t1.5 -28.5t-20 -20.5t-29 -2.5l-273 70q-27 7 -38.5 33t-2.5 53z" />
<glyph unicode="a" horiz-adv-x="1275" d="M72 385q0 89 30 163t91 132t163.5 90.5t237.5 32.5q142 0 250.5 -55t169.5 -132v248q0 91 -107.5 157t-257.5 66q-188 0 -352 -92q-15 -12 -39 -12q-29 0 -49.5 20.5t-20.5 49.5q0 38 29 57q171 113 432 113q137 0 253 -48.5t183.5 -131t67.5 -179.5v-811 q0 -29 -20.5 -49t-49.5 -20t-49 20t-20 49v101q-71 -86 -185 -137.5t-235 -51.5q-135 0 -237.5 32.5t-163.5 91t-91 133t-30 163.5zM215 385q0 -127 92.5 -206t286.5 -79q109 0 206 38.5t155.5 104.5t58.5 142t-58.5 141.5t-155.5 103.5t-206 38q-194 0 -286.5 -78 t-92.5 -205z" />
<glyph unicode="b" horiz-adv-x="1464" d="M123 53v1430q0 29 20.5 49t49.5 20t49 -20t20 -49v-537q38 57 83.5 104t105.5 86.5t137 62t164 22.5q102 0 198 -31.5t173.5 -89.5t136 -135.5t90.5 -173t32 -197.5q0 -128 -50 -244.5t-134.5 -201t-201 -134t-244.5 -49.5q-86 0 -163.5 22.5t-137.5 62.5t-105.5 86.5 t-83.5 103.5v-187q0 -29 -20 -49t-49 -20t-49.5 20t-20.5 49zM262 594q0 -100 39 -191.5t105 -157.5t156.5 -105.5t189.5 -39.5q202 0 344.5 145t142.5 349q0 133 -65 246t-177 179t-245 66q-201 0 -345.5 -144.5t-144.5 -346.5z" />
<glyph unicode="c" horiz-adv-x="1247" d="M82 594q0 171 84 315.5t229 228.5t316 85q256 0 446 -187q19 -21 19.5 -49t-19.5 -49q-20 -20 -49 -19t-51 21q-147 144 -346 147q-132 -1 -244 -67.5t-177 -179t-65 -244.5q0 -134 65 -248t177 -181t244 -67q99 0 189 40.5t159 109.5q20 19 48 18.5t48 -20.5 q22 -20 22 -48.5t-20 -47.5q-193 -187 -446 -187q-171 1 -316 85t-229 228.5t-84 315.5z" />
<glyph unicode="d" horiz-adv-x="1464" d="M84 594q0 170 85 314.5t230.5 228.5t315.5 84q306 0 487 -275v537q0 29 20.5 49t49.5 20t49 -20t20 -49v-1430q0 -29 -20 -49t-49 -20t-49.5 20t-20.5 49v187q-183 -275 -487 -275q-170 0 -315.5 84t-230.5 229t-85 316zM227 594q0 -204 143 -349t345 -145 q132 0 244 66.5t177.5 180t65.5 247.5q0 133 -65.5 246t-177.5 179t-244 66q-133 0 -245.5 -66t-177.5 -179t-65 -246z" />
<glyph unicode="e" horiz-adv-x="1415" d="M82 594q0 170 84 314.5t228 228.5t313 84q168 0 311 -83t227.5 -227.5t87.5 -316.5q0 -29 -21 -49.5t-50 -20.5h-1033q27 -181 161.5 -302.5t316.5 -121.5q121 0 224 56t169 153q21 35 59 35q43 0 63 -38q9 -18 9 -35q0 -19 -12 -38q-75 -113 -214 -190.5t-298 -77.5 q-169 0 -313 84.5t-228 229.5t-84 315zM229 664h957q-27 179 -162 300t-317 121t-316.5 -121t-161.5 -300z" />
<glyph unicode="f" horiz-adv-x="684" d="M25 1116q0 29 20 49.5t49 20.5h86v114q0 127 79 199t200 72q100 0 180 -64q25 -21 25 -53q0 -29 -20.5 -49.5t-49.5 -20.5q-25 0 -45 17q-44 35 -90 35q-62 0 -101 -32.5t-39 -103.5v-114h191q29 0 49.5 -20.5t20.5 -49.5t-20.5 -49t-49.5 -20h-191v-994q0 -29 -20 -49 t-49 -20t-49.5 20t-20.5 49v994h-86q-29 0 -49 20t-20 49z" />
<glyph unicode="g" horiz-adv-x="1193" d="M74 -43q0 106 63 178q-63 63 -63 148q0 176 258 237q-65 57 -102 135t-37 166q0 166 118.5 284t284.5 118q153 0 268 -101q30 46 79.5 73.5t107.5 27.5q29 0 49 -20.5t20 -49.5t-20.5 -48.5t-48.5 -19.5q-36 0 -61 -26.5t-25 -63.5q0 -15 8 -28q26 -84 26 -146 q0 -166 -118.5 -283.5t-284.5 -117.5q-170 0 -274.5 -32.5t-104.5 -100.5q0 -39 31 -64q143 76 348 76q148 0 265 -38.5t188 -117.5t71 -186q0 -106 -71 -185t-188.5 -118t-264.5 -39q-146 0 -263.5 39t-188 118t-70.5 185zM217 -43q0 -102 105.5 -154.5t273.5 -52.5 t274.5 52.5t106.5 154.5t-106.5 154.5t-274.5 52.5t-273.5 -52.5t-105.5 -154.5zM336 821q0 -108 76.5 -187t183.5 -79q108 0 184 79t76 187q0 109 -76 187.5t-184 78.5q-107 0 -183.5 -78.5t-76.5 -187.5z" />
<glyph unicode="h" horiz-adv-x="1257" d="M123 53v1430q0 29 20.5 49t49.5 20t49 -20t20 -49v-508q40 94 153 170t247 76q218 0 345.5 -130.5t127.5 -342.5v-695q0 -29 -20.5 -49t-49.5 -20t-49.5 20t-20.5 49v695q0 151 -91.5 244t-241.5 93q-98 0 -189 -47t-149.5 -129.5t-61.5 -177.5v-678q0 -29 -20 -49 t-49 -20t-49.5 20t-20.5 49z" />
<glyph unicode="i" horiz-adv-x="389" d="M102 1479q0 38 27.5 65t65.5 27t65 -27t27 -65t-27 -65.5t-65 -27.5t-65.5 27.5t-27.5 65.5zM125 53v1080q0 29 20.5 49t49.5 20t49 -20t20 -49v-1080q0 -29 -20 -49t-49 -20t-49.5 20t-20.5 49z" />
<glyph unicode="j" horiz-adv-x="536" d="M-81 -257q0 28 22 50q20 21 48.5 20t51.5 -24q57 -39 94 -39q62 0 100.5 36.5t38.5 109.5v1237q0 28 21 48.5t49 20.5q29 -2 49.5 -21.5t20.5 -47.5v-1237q0 -128 -80 -204.5t-199 -76.5q-114 0 -194 80q-22 20 -22 48zM252 1479q0 38 27 65t65 27t65 -27t27 -65 t-27 -65.5t-65 -27.5t-65 27.5t-27 65.5z" />
<glyph unicode="k" horiz-adv-x="1132" d="M123 53v1430q0 29 20.5 49t49.5 20t49 -20t20 -49v-1430q0 -29 -20 -49t-49 -20t-49.5 20t-20.5 49zM355 596.5q1 30.5 22 50.5l588 539q22 20 51 19t49 -23q19 -21 18 -51t-22 -50l-531 -485l531 -490q21 -20 22 -49.5t-18 -50.5q-20 -22 -49 -23t-51 19l-592 547 q-19 17 -18 47.5z" />
<glyph unicode="l" d="M123 53v1430q0 29 20.5 49t49.5 20t49 -20t20 -49v-1430q0 -29 -20 -49t-49 -20t-49.5 20t-20.5 49z" />
<glyph unicode="m" horiz-adv-x="1781" d="M123 53v1080q0 29 20.5 49t49.5 20t49 -20t20 -49v-119q21 72 103.5 139.5t195.5 67.5q220 0 348 -195q59 87 153 141t200 54q183 0 290 -111t107 -287v-770q0 -29 -20.5 -49t-49.5 -20t-49 20t-20 49v770q0 117 -72 189.5t-186 72.5q-119 0 -210 -83.5t-91 -198.5v-750 q0 -29 -20.5 -49t-49.5 -20t-49.5 20t-20.5 49v750q0 119 -72.5 200.5t-187.5 81.5q-114 0 -205 -80.5t-94 -191.5v-760q0 -29 -20 -49t-49 -20t-49.5 20t-20.5 49z" />
<glyph unicode="n" horiz-adv-x="1257" d="M123 53v1080q0 29 20.5 49t49.5 20t49 -20t20 -49v-177q28 93 143 179t257 86q218 0 345.5 -130.5t127.5 -342.5v-695q0 -29 -20.5 -49t-49.5 -20t-49.5 20t-20.5 49v695q0 151 -91.5 244t-241.5 93q-98 0 -189 -47t-149.5 -129.5t-61.5 -177.5v-678q0 -29 -20 -49 t-49 -20t-49.5 20t-20.5 49z" />
<glyph unicode="o" horiz-adv-x="1423" d="M82 594q0 170 84.5 314.5t229.5 228.5t315 84q171 0 316 -84t229.5 -228.5t84.5 -314.5q0 -171 -84.5 -316t-229.5 -229t-316 -84q-170 0 -315 84t-229.5 229t-84.5 316zM225 594q0 -134 65 -247.5t177 -180t244 -66.5q134 0 246 66.5t176.5 180t64.5 247.5 q0 203 -142 347t-345 144q-132 0 -244 -66t-177 -179t-65 -246z" />
<glyph unicode="p" horiz-adv-x="1464" d="M123 -295v1428q0 29 20.5 49t49.5 20t49 -20t20 -49v-187q38 57 83.5 104t105.5 86.5t137 62t164 22.5q102 0 198 -31.5t173.5 -89.5t136 -135.5t90.5 -173t32 -197.5q0 -128 -50 -244.5t-134.5 -201t-201 -134t-244.5 -49.5q-86 0 -163.5 22.5t-137.5 62.5t-105.5 86.5 t-83.5 103.5v-535q0 -30 -20 -51t-49 -21t-49.5 21.5t-20.5 50.5zM262 594q0 -100 39 -191.5t105 -157.5t156.5 -105.5t189.5 -39.5q202 0 344.5 145t142.5 349q0 133 -65 246t-177 179t-245 66q-201 0 -345.5 -144.5t-144.5 -346.5z" />
<glyph unicode="q" horiz-adv-x="1464" d="M82 594q0 170 85 314.5t230.5 228.5t315.5 84q308 0 489 -275v187q0 29 20.5 49t49.5 20t49 -20t20 -49v-1428q0 -30 -20 -51t-49 -21t-49.5 21.5t-20.5 50.5v535q-52 -77 -115 -135t-161.5 -99t-212.5 -41q-170 0 -315.5 84t-230.5 229t-85 316zM225 594 q0 -204 143 -349t345 -145q132 0 244.5 66t178.5 180t66 248q0 202 -144 346.5t-345 144.5q-133 0 -245.5 -66t-177.5 -179t-65 -246z" />
<glyph unicode="r" horiz-adv-x="765" d="M123 53v1080q1 29 21.5 49t48.5 20q31 0 50 -19t19 -48v-111q39 84 124.5 140.5t195.5 56.5q46 0 112 -17q23 -3 39.5 -21.5t16.5 -45.5q0 -28 -20 -48t-48 -20q-8 0 -37 6t-63 6q-132 0 -226 -91.5t-94 -221.5v-715q0 -28 -19 -48.5t-48 -20.5q-30 0 -51 20t-21 49z" />
<glyph unicode="s" horiz-adv-x="1120" d="M82 150q0 42 35 62q18 10 36 11q18 0 35 -10q198 -113 365 -113q157 0 248.5 63t91.5 169q0 89 -57 141t-183 72l-227 37q-50 7 -93 20.5t-86.5 39t-74 60t-49.5 87t-19 116.5q0 99 63.5 172.5t163 109.5t218.5 36q201 0 381 -97q43 -21 43 -63q0 -40 -36 -60 q-18 -10 -35 -10q-19 0 -38 11q-84 40 -156 61.5t-159 21.5q-134 0 -217.5 -52.5t-83.5 -125.5q0 -88 57.5 -134t167.5 -60l232 -37q148 -21 240 -108q91 -86 91 -243q0 -165 -132 -264q-130 -98 -351 -98q-116 0 -230.5 33t-207.5 90q-33 20 -33 62z" />
<glyph unicode="t" horiz-adv-x="638" d="M41 1116q0 29 20.5 49.5t49.5 20.5h86v213q0 29 20 50t49 21t49.5 -21t20.5 -50v-213h190q29 0 49.5 -20.5t20.5 -49.5t-20.5 -49t-49.5 -20h-190v-768q0 -69 39 -104.5t100 -35.5h51q30 0 51 -20t21 -49t-21.5 -49.5t-50.5 -20.5h-51q-118 0 -198 76t-80 203v768h-86 q-29 0 -49.5 20t-20.5 49z" />
<glyph unicode="u" horiz-adv-x="1257" d="M123 438v695q0 29 20.5 49t49.5 20t49 -20t20 -49v-695q0 -151 92 -244.5t242 -93.5q98 0 188.5 47.5t149 130t61.5 177.5v678q0 29 20.5 49t49.5 20t49.5 -20t20.5 -49v-1080q0 -29 -20.5 -49t-49.5 -20t-49.5 20t-20.5 49v176q-28 -93 -142.5 -178.5t-256.5 -85.5 q-218 0 -345.5 130.5t-127.5 342.5z" />
<glyph unicode="v" horiz-adv-x="1196" d="M28 1157q9 27 35 39t54.5 2.5t40.5 -35.5l440 -958l440 958q12 26 40.5 35.5t54.5 -2.5t35 -39t-3 -53l-503 -1081q-22 -40 -63.5 -40t-63.5 40l-504 1081q-12 26 -3 53z" />
<glyph unicode="w" horiz-adv-x="1644" d="M29 1106q-4 12 -4 24q0 22 14 42q22 30 59 30q24 0 43 -14.5t27 -36.5l293 -877l293 877q8 22 26.5 36.5t42.5 14.5q23 0 42.5 -14.5t27.5 -36.5l291 -877l293 877q8 22 27 36.5t42 14.5q36 0 58 -30q14 -20 14 -42q0 -12 -4 -24l-363 -1075q-5 -20 -23.5 -33.5 t-43.5 -13.5q-23 0 -42.5 13.5t-25.5 33.5l-293 870l-293 -870q-8 -21 -26.5 -34t-42.5 -13t-43 13t-27 34z" />
<glyph unicode="x" horiz-adv-x="1114" d="M44 26q-6 15 -6 29q0 25 19 47l408 492l-408 489q-17 21 -17 44q0 16 8 33q20 42 63 42q36 0 55 -28l391 -469l391 469q28 28 58 28q49 0 66 -42q6 -15 6 -29q0 -25 -19 -48l-408 -489l408 -494q19 -22 19 -46q0 -14 -7 -30q-18 -40 -65 -40q-37 0 -56 26l-393 471 l-391 -471q-20 -26 -55 -26q-50 0 -67 42z" />
<glyph unicode="y" horiz-adv-x="1196" d="M28 1157q9 27 35 39t54.5 2.5t40.5 -35.5l440 -958l440 958q12 26 40.5 35.5t54.5 -2.5t35 -39t-3 -53l-663 -1432q-12 -26 -40 -35t-54 3t-35.5 39t2.5 53l147 317l-491 1055q-12 26 -3 53z" />
<glyph unicode="z" horiz-adv-x="1077" d="M49 70q0 25 17 45l743 932h-688q-30 0 -51 20t-21 49t21.5 49.5t50.5 20.5h835q29 0 50.5 -20.5t21.5 -49.5q0 -26 -16 -45l-744 -932h688q30 0 51 -20t21 -49t-21.5 -49.5t-50.5 -20.5h-835q-29 0 -50.5 20.5t-21.5 49.5z" />
<glyph unicode="{" horiz-adv-x="679" d="M131 592q0 29 20 49.5t48 20.5q44 0 75 31t31 75v522q0 102 71 174t173 72h16q29 0 49.5 -19.5t20.5 -48.5t-20 -48t-50 -19h-16q-43 0 -74 -33.5t-31 -77.5v-522q0 -58 -31 -103.5t-73 -70.5q43 -27 73.5 -72.5t30.5 -103.5v-520q0 -44 31 -77.5t74 -33.5h16 q29 0 49.5 -19.5t20.5 -48.5t-20.5 -49t-49.5 -20h-16q-102 0 -173 72.5t-71 175.5v520q0 44 -31 75t-75 31q-28 0 -48 19.5t-20 48.5z" />
<glyph unicode="|" horiz-adv-x="606" d="M246 -309v1804q0 23 17 40t40 17t40 -17t17 -40v-1804q0 -23 -17 -40.5t-40 -17.5t-40 17.5t-17 40.5z" />
<glyph unicode="}" horiz-adv-x="679" d="M45 -281q0 29 20.5 48.5t49.5 19.5h16q43 0 74 33.5t31 77.5v520q0 58 30.5 103.5t73.5 72.5q-42 25 -73 70.5t-31 103.5v522q0 44 -31 77.5t-74 33.5h-16q-30 0 -50 19t-20 48t20.5 48.5t49.5 19.5h16q102 0 173 -72t71 -174v-522q0 -44 31 -75t75 -31q28 0 48 -20.5 t20 -49.5t-20 -48.5t-48 -19.5q-44 0 -75 -31t-31 -75v-520q0 -103 -71 -175.5t-173 -72.5h-16q-29 0 -49.5 20t-20.5 49z" />
<glyph unicode="~" horiz-adv-x="960" d="M123 516q0 92 64.5 156.5t156.5 64.5q61 0 113 -30.5t80 -83.5q28 -48 81 -48q39 0 66 28t27 69q0 28 18.5 46.5t44.5 18.5t45 -18.5t19 -46.5q-3 -94 -67 -157.5t-153 -63.5q-62 0 -113 30.5t-79 81.5q-30 49 -82 49q-39 0 -66 -26.5t-30 -69.5q0 -28 -19 -46.5 t-45 -18.5t-43.5 18.5t-17.5 46.5z" />
<glyph unicode="&#xa1;" d="M88 1450q0 41 31.5 71.5t75.5 30.5q41 0 71.5 -30.5t30.5 -71.5q0 -44 -30.5 -75.5t-71.5 -31.5q-44 0 -75.5 31.5t-31.5 75.5zM123 53l20 1100q0 20 15 34.5t35 14.5t34.5 -14.5t14.5 -34.5l20 -1100q0 -29 -20 -49t-49 -20t-49.5 20t-20.5 49z" />
<glyph unicode="&#xa2;" horiz-adv-x="1247" d="M82 594q0 153 68.5 286.5t188 221t267.5 112.5v95q0 29 19.5 49t48.5 20t49 -20t20 -49v-88q238 -12 414 -185q19 -21 19.5 -49t-19.5 -49q-20 -20 -49 -19t-51 21q-147 144 -346 147q-132 -1 -244 -67.5t-177 -179t-65 -244.5q0 -134 65 -248t177 -181t244 -67 q99 0 189 40.5t159 109.5q20 19 48 18.5t48 -20.5q22 -20 22 -48.5t-20 -47.5q-176 -173 -414 -185v-90q0 -28 -20 -49t-49 -21t-48.5 21t-19.5 49v96q-226 37 -375 212.5t-149 408.5z" />
<glyph unicode="&#xa3;" horiz-adv-x="1236" d="M66 776q0 29 20 49.5t49 20.5h113v217q0 100 37.5 194t109.5 166q144 144 347 147.5t352 -134.5q30 -20 30 -58q0 -29 -20 -49t-49 -20q-26 0 -45 16q-107 106 -258.5 106t-257.5 -106q-107 -110 -107 -262v-217h479q29 0 49.5 -20.5t20.5 -49.5t-20.5 -49t-49.5 -20 h-479v-394q0 -33 -2 -47q7 0 22 1t25 1q144 0 246 -102q60 -60 147 -60q88 0 148 60l82 80q22 18 47 18q29 0 49 -21t20 -50q0 -22 -15.5 -42t-84.5 -85q-101 -101 -246 -101q-141 0 -245 101q-57 63 -148 63q-90 0 -147 -63l-66 -64q-22 -18 -47 -18q-29 0 -49.5 20 t-20.5 49q0 32 25 53l59 60q62 65 62 149v392h-113q-29 0 -49 20t-20 49z" />
<glyph unicode="&#xa4;" horiz-adv-x="1452" d="M96 594q0 223 135 389l-96 98q-20 22 -19 51.5t21 49.5q20 22 49.5 22t49.5 -22l96 -99q175 138 393 138t393 -138l99 99q20 22 49 22t49 -22q20 -20 21 -49.5t-19 -51.5l-98 -98q137 -169 137 -389q0 -222 -139 -393l100 -99q20 -22 20 -50t-20 -48q-22 -22 -51 -23 t-49 21l-101 98q-170 -135 -391 -135q-216 0 -391 135l-98 -98q-20 -22 -49.5 -21t-51.5 23q-20 20 -20 48t20 50l98 99q-137 169 -137 393zM238 594q0 -134 65.5 -246.5t177.5 -177t244 -64.5q134 0 247 65t179 177t66 246q0 202 -144 344.5t-348 142.5q-201 0 -344 -142.5 t-143 -344.5z" />
<glyph unicode="&#xa5;" horiz-adv-x="1263" d="M38.5 1513q19.5 39 61.5 39q37 0 58 -28l473 -666l473 666q21 28 57 28q41 0 61.5 -37.5t-3.5 -72.5l-283 -393h156q29 0 49 -20.5t20 -49.5t-20 -49.5t-49 -20.5h-254l-101 -141h355q29 0 49 -20.5t20 -49.5t-20 -49t-49 -20h-392v-576q0 -29 -20 -49t-49 -20t-49.5 20 t-20.5 49v576h-389q-29 0 -49.5 20t-20.5 49t20.5 49.5t49.5 20.5h352l-102 141h-250q-29 0 -49.5 20.5t-20.5 49.5t20.5 49.5t49.5 20.5h152l-281 393q-24 32 -4.5 71z" />
<glyph unicode="&#xa6;" horiz-adv-x="387" d="M123 -51v489q0 29 21.5 49.5t50.5 20.5t49 -20.5t20 -49.5v-489q0 -29 -20 -48.5t-49 -19.5q-30 0 -51 19.5t-21 48.5zM123 750v489q0 29 21.5 49.5t50.5 20.5t49 -20.5t20 -49.5v-489q0 -29 -20 -48.5t-49 -19.5q-30 0 -51 19.5t-21 48.5z" />
<glyph unicode="&#xa7;" horiz-adv-x="1075" d="M102 594q0 103 47 175t136 128q-183 109 -183 301q0 168 120 270.5t315 102.5q152 0 269.5 -80t154.5 -203q8 -30 -12 -57t-56 -27q-48 0 -64 43q-34 85 -110.5 137t-181.5 52q-137 0 -214 -63t-77 -175q0 -109 82.5 -172t208.5 -63q197 0 316.5 -101t119.5 -268 q0 -103 -46.5 -175t-135.5 -128q182 -108 182 -301q0 -168 -119.5 -270.5t-314.5 -102.5q-152 0 -269.5 80t-154.5 203q-8 30 11.5 57t55.5 27q48 0 64 -43q33 -85 110.5 -137t182.5 -52q137 0 213.5 63t76.5 175q0 109 -82 172t-208 63q-197 0 -317 101t-120 268zM246 594 q0 -111 77 -172.5t216 -61.5q125 0 207.5 63.5t82.5 170.5q0 111 -76.5 172t-215.5 61q-125 0 -208 -63t-83 -170z" />
<glyph unicode="&#xa8;" horiz-adv-x="647" d="M31 1481q0 37 27.5 63.5t64.5 26.5t63.5 -26.5t26.5 -63.5q0 -38 -26.5 -65t-63.5 -27t-64.5 27t-27.5 65zM436 1481q0 37 27 63.5t65 26.5q37 0 62.5 -26.5t25.5 -63.5q0 -38 -25.5 -65t-62.5 -27q-38 0 -65 27t-27 65z" />
<glyph unicode="&#xa9;" horiz-adv-x="1419" d="M82 594q0 170 84 314.5t228.5 228.5t314.5 84q171 0 315.5 -84t228.5 -228.5t84 -314.5q0 -171 -84 -316t-228.5 -229t-315.5 -84q-170 0 -314.5 84t-228.5 229t-84 316zM156 594q0 -112 44 -215t118 -177.5t176.5 -118.5t214.5 -44q114 0 217 44t177 118.5t117.5 177.5 t43.5 215t-43.5 214.5t-117.5 176.5t-177 118t-217 44q-112 0 -214.5 -44t-176.5 -118t-118 -176.5t-44 -214.5zM307 594q0 167 118 284t284 117q165 0 286 -118q12 -12 12 -31t-12 -31q-12 -13 -31.5 -12.5t-33.5 12.5q-89 89 -221 92q-129 -1 -219.5 -92t-90.5 -219 q0 -131 90.5 -223t219.5 -92q131 0 223 92q12 12 30.5 12t30.5 -12q13 -12 13.5 -32t-11.5 -30q-124 -118 -286 -118q-166 0 -284 117t-118 284z" />
<glyph unicode="&#xaa;" horiz-adv-x="724" d="M82 1153q0 93 64.5 151t195.5 58q72 0 126.5 -27.5t84.5 -66.5v125q0 44 -53.5 77t-128.5 33q-100 0 -176 -45q-9 -6 -21 -6q-14 0 -24.5 10t-10.5 25q0 18 15 29q83 55 217 55q104 0 178 -52t74 -126v-406q0 -15 -10.5 -25t-24.5 -10q-15 0 -25 10t-10 25v49 q-35 -43 -92.5 -68.5t-118.5 -25.5q-131 0 -195.5 58.5t-64.5 152.5zM154 1153q0 -64 45.5 -103.5t142.5 -39.5q84 0 147.5 42.5t63.5 100.5t-63.5 99.5t-147.5 41.5q-97 0 -142.5 -39t-45.5 -102z" />
<glyph unicode="&#xab;" horiz-adv-x="882" d="M66 594q0 30 26.5 59t151.5 139l104 91q35 32 78 11t43 -67q0 -24 -31 -59l-202 -174l202 -176q31 -27 31 -58q0 -45 -43 -65.5t-78 10.5q-222 196 -237 211q-41 40 -44 65q-1 6 -1 13zM414 594q0 30 26.5 59t151.5 139q20 17 32 27.5t32.5 29t39.5 34.5q35 32 78 11 t43 -67q0 -24 -31 -59l-202 -174l202 -176q31 -27 31 -58q0 -45 -43 -65.5t-78 10.5q-222 196 -237 211q-41 40 -44 65q-1 6 -1 13z" />
<glyph unicode="&#xac;" horiz-adv-x="911" d="M106 592q0 29 20.5 49.5t49.5 20.5h543q29 0 49 -20.5t20 -49.5v-154q0 -29 -21 -49t-50 -20t-49.5 20t-20.5 49v86h-471q-29 0 -49.5 19.5t-20.5 48.5z" />
<glyph unicode="&#xad;" horiz-adv-x="952" d="M131 592q0 29 19.5 49.5t48.5 20.5h557q29 0 49 -20.5t20 -49.5t-20 -48.5t-49 -19.5h-557q-29 0 -48.5 19.5t-19.5 48.5z" />
<glyph unicode="&#xae;" horiz-adv-x="653" d="M82 1327q0 100 72.5 172t173.5 72q100 0 171.5 -72t71.5 -172q0 -101 -71.5 -173.5t-171.5 -72.5q-101 0 -173.5 72.5t-72.5 173.5zM111 1327q0 -91 63 -154t154 -63q89 0 152 63t63 154q0 89 -63 152t-152 63q-91 0 -154 -63t-63 -152zM215 1171v316h141q43 0 73 -29 t30 -69q0 -34 -18.5 -60t-49.5 -37l62 -121l-31 -2l-60 119h-118v-117h-29zM244 1315h112q31 0 51.5 21t20.5 53q0 29 -21 50t-51 21h-112v-145z" />
<glyph unicode="&#xaf;" horiz-adv-x="628" d="M106 1466q0 29 20.5 49.5t49.5 20.5h277q29 0 49 -20.5t20 -49.5t-20 -49t-49 -20h-277q-29 0 -49.5 20t-20.5 49z" />
<glyph unicode="&#xb0;" horiz-adv-x="622" d="M102 1362q0 86 61.5 147.5t147.5 61.5t147.5 -61.5t61.5 -147.5t-61.5 -147.5t-147.5 -61.5t-147.5 61.5t-61.5 147.5zM209 1362q0 -44 29.5 -75.5t72.5 -31.5q44 0 75.5 31.5t31.5 75.5q0 43 -31.5 72.5t-75.5 29.5q-43 0 -72.5 -29.5t-29.5 -72.5z" />
<glyph unicode="&#xb1;" horiz-adv-x="1390" d="M86 70q0 29 20 48t50 19h1079q30 0 50 -19t20 -48t-20.5 -49.5t-49.5 -20.5h-1079q-29 0 -49.5 20.5t-20.5 49.5zM86 768q0 29 19.5 49.5t48.5 20.5h473v295q0 29 20 49t49 20t49.5 -20t20.5 -49v-295h469q29 0 49.5 -20.5t20.5 -49.5t-20.5 -48.5t-49.5 -19.5h-469v-292 q0 -29 -20.5 -49.5t-49.5 -20.5t-49 20.5t-20 49.5v292h-473q-29 0 -48.5 19.5t-19.5 48.5z" />
<glyph unicode="&#xb2;" horiz-adv-x="677" d="M82 1294q0 109 74.5 183.5t183.5 74.5t182.5 -69.5t73.5 -177.5q0 -113 -92 -201l-281 -266h316q13 0 23.5 -10.5t10.5 -24.5q0 -15 -10 -25t-24 -10h-404q-14 0 -24.5 10t-10.5 25q0 13 13 26l346 330q65 65 65 146q0 79 -52.5 129.5t-131.5 50.5t-133.5 -55t-54.5 -136 q0 -13 -10.5 -23.5t-24.5 -10.5q-15 0 -25 10t-10 24z" />
<glyph unicode="&#xb3;" horiz-adv-x="686" d="M82 977q0 15 10 25t25 10q14 0 24.5 -10t10.5 -25q0 -72 52 -115t140 -43q86 0 137 43t51 115t-54 115t-134 43h-31q-14 0 -24 9.5t-10 24.5q0 14 10.5 24.5t23.5 10.5h31q70 0 117 39t47 103t-44.5 102.5t-119.5 38.5q-76 0 -121 -38t-45 -103q0 -15 -10 -25t-25 -10 q-14 0 -24 10t-10 25q0 94 64.5 151t170.5 57t171 -57t65 -151q0 -109 -103 -175q127 -63 127 -194q0 -101 -72 -163t-188 -62q-117 0 -189.5 62t-72.5 163z" />
<glyph unicode="&#xb4;" horiz-adv-x="718" d="M178 1401q-6 14 1.5 28.5t21.5 22.5l254 121q26 11 52.5 -1t33.5 -38q9 -27 -2.5 -53t-38.5 -33l-273 -70q-15 -4 -29 2.5t-20 20.5z" />
<glyph unicode="&#xb5;" horiz-adv-x="1257" d="M123 -295v1428q0 29 20.5 49t49.5 20t49 -20t20 -49l2 -740q14 -133 103.5 -213t228.5 -80q98 0 188.5 47.5t149 130t61.5 177.5v678q0 29 20.5 49t49.5 20t49.5 -20t20.5 -49v-1080q0 -29 -20.5 -49t-49.5 -20t-49.5 20t-20.5 49v176q-28 -93 -142.5 -178.5 t-256.5 -85.5q-214 0 -332 131v-391q0 -29 -21 -50.5t-50 -21.5t-49.5 21.5t-20.5 50.5z" />
<glyph unicode="&#xb6;" horiz-adv-x="1220" d="M51 1153q0 158 112.5 270.5t272.5 112.5h592q29 0 49.5 -20.5t20.5 -49.5v-1413q0 -29 -20.5 -49t-49.5 -20t-49.5 20t-20.5 49v1344h-208v-1344q0 -29 -20.5 -49t-49.5 -20t-49.5 20t-20.5 49v715h-174q-160 0 -272.5 112.5t-112.5 272.5zM195 1153q0 -103 69.5 -174.5 t171.5 -71.5h174v490h-174q-102 0 -171.5 -71t-69.5 -173z" />
<glyph unicode="&#xb7;" horiz-adv-x="454" d="M72 594q0 43 31 73.5t75 30.5q42 0 72.5 -31t30.5 -73q0 -43 -31 -74t-72 -31q-44 0 -75 31t-31 74z" />
<glyph unicode="&#xb8;" horiz-adv-x="665" d="M203 -286q8 15 23 14.5t28 -15.5q17 -28 49.5 -36.5t61.5 8.5q28 15 36.5 47t-8.5 63q-17 28 -47 37t-59 -4q-12 -10 -28 -3.5t-13 25.5l57 197l53 -14l-45 -144q40 3 75.5 -14.5t55.5 -52.5q28 -47 13 -101.5t-64 -82.5q-46 -27 -99 -14t-85 59q-12 16 -4 31z" />
<glyph unicode="&#xb9;" horiz-adv-x="462" d="M102 1417q0 23 21 33l160 96q9 6 22 6q14 0 24.5 -9.5t10.5 -24.5v-715q0 -14 -11 -24.5t-26 -10.5q-13 0 -24 11t-11 24v651l-112 -65q-10 -7 -19 -7q-15 0 -25 10t-10 25z" />
<glyph unicode="&#xba;" horiz-adv-x="792" d="M82 1257q0 129 92.5 221.5t222.5 92.5t223 -92.5t93 -221.5q0 -130 -92.5 -222.5t-223.5 -92.5t-223 92t-92 223zM154 1257q0 -103 71 -175t172 -72t172.5 72t71.5 175q0 101 -71.5 173.5t-172.5 72.5t-172 -72t-71 -174z" />
<glyph unicode="&#xbb;" horiz-adv-x="882" d="M66 360q0 32 30 58l203 176l-203 174q-30 34 -30 59q0 46 42.5 67t77.5 -11q225 -198 234 -208q44 -42 48 -67q1 -6 1 -14q0 -30 -23.5 -56t-148.5 -135q-68 -60 -111 -98q-35 -31 -77.5 -10.5t-42.5 65.5zM414 360q0 32 30 58l203 176l-203 174q-30 34 -30 59 q0 46 43 67t78 -11q222 -196 237 -211q41 -40 44 -65q1 -6 1 -13q0 -30 -26.5 -59t-151.5 -139q-20 -17 -32 -27.5t-32.5 -29t-39.5 -34.5q-35 -31 -78 -10.5t-43 65.5z" />
<glyph unicode="&#xbc;" horiz-adv-x="1361" d="M102 1417q0 23 21 33l160 96q9 6 22 6q14 0 24.5 -9.5t10.5 -24.5v-715q0 -14 -11 -24.5t-26 -10.5q-13 0 -24 11t-11 24v651l-112 -65q-10 -7 -19 -7q-15 0 -25 10t-10 25zM311 27l623 1507q6 12 19.5 16.5t23.5 -0.5q12 -5 17 -17t-1 -24l-622 -1507 q-6 -11 -18.5 -16.5t-22.5 -1.5q-12 5 -18.5 18t-0.5 25zM741 203q0 11 11 22l381 529q11 14 30 14q14 0 24.5 -10t10.5 -25v-497h88q14 0 24.5 -10t10.5 -25q0 -13 -10.5 -23t-24.5 -10h-88v-150q0 -13 -10.5 -23.5t-24.5 -10.5q-15 0 -25 10t-10 24v150h-352 q-14 0 -24.5 10t-10.5 25zM840 236h288v397z" />
<glyph unicode="&#xbd;" horiz-adv-x="1458" d="M102 1417q0 23 21 33l160 96q9 6 22 6q14 0 24.5 -9.5t10.5 -24.5v-715q0 -14 -11 -24.5t-26 -10.5q-13 0 -24 11t-11 24v651l-112 -65q-10 -7 -19 -7q-15 0 -25 10t-10 25zM311 27l623 1507q6 12 19.5 16.5t23.5 -0.5q12 -5 17 -17t-1 -24l-622 -1507 q-6 -11 -18.5 -16.5t-22.5 -1.5q-12 5 -18.5 18t-0.5 25zM862 522q0 109 74.5 183.5t183.5 74.5q108 0 182 -70t74 -178q0 -112 -92 -200l-280 -266h315q13 0 24 -11t11 -24q0 -15 -10.5 -25t-24.5 -10h-404q-14 0 -24 10t-10 25q0 14 12 26l346 330q66 66 66 145t-53 130 t-132 51t-133.5 -55t-54.5 -136q0 -14 -11 -24.5t-24 -10.5q-15 0 -25 10.5t-10 24.5z" />
<glyph unicode="&#xbe;" horiz-adv-x="1527" d="M82 977q0 15 10 25t25 10q14 0 24.5 -10t10.5 -25q0 -72 52 -115t140 -43q86 0 137 43t51 115t-54 115t-134 43h-31q-14 0 -24 9.5t-10 24.5q0 14 10.5 24.5t23.5 10.5h31q70 0 117 39t47 103t-44.5 102.5t-119.5 38.5q-76 0 -121 -38t-45 -103q0 -15 -10 -25t-25 -10 q-14 0 -24 10t-10 25q0 94 64.5 151t170.5 57t171 -57t65 -151q0 -109 -103 -175q127 -63 127 -194q0 -101 -72 -163t-188 -62q-117 0 -189.5 62t-72.5 163zM477 27l623 1507q6 12 19.5 16.5t23.5 -0.5q12 -5 17 -17t-1 -24l-622 -1507q-6 -11 -18.5 -16.5t-22.5 -1.5 q-12 5 -18.5 18t-0.5 25zM907 203q0 11 11 22l380 529q10 14 31 14q14 0 24.5 -10t10.5 -25v-497h88q14 0 24.5 -10t10.5 -25q0 -13 -10.5 -23t-24.5 -10h-88v-150q0 -13 -10.5 -23.5t-24.5 -10.5q-15 0 -25 10t-10 24v150h-352q-14 0 -24.5 10t-10.5 25zM1006 236h288v397z " />
<glyph unicode="&#xbf;" horiz-adv-x="1202" d="M70 485q0 199 129 347t321 174v110q0 29 21.5 49.5t50.5 20.5t48 -20t19 -50v-176q0 -29 -20 -49.5t-49 -20.5q-158 0 -267.5 -112t-109.5 -273q0 -159 110.5 -272t268.5 -113q141 0 248.5 93t130.5 231q3 27 23.5 46t47.5 19q32 0 53.5 -24.5t14.5 -63.5 q-31 -187 -177 -311.5t-341 -124.5q-106 0 -203 41t-167 111t-111 166t-41 202zM489 1448q0 42 30.5 73t72.5 31q44 0 75 -30.5t31 -73.5q0 -44 -31 -75.5t-75 -31.5q-42 0 -72.5 31.5t-30.5 75.5z" />
<glyph unicode="&#xc0;" horiz-adv-x="1413" d="M41 51q0 17 6 29l596 1431q16 41 64 41q47 0 63 -41l596 -1431q6 -12 6 -29q0 -29 -19 -48t-50 -19q-48 0 -66 41l-129 321h-803l-129 -321q-18 -41 -65 -41q-31 0 -50.5 19t-19.5 48zM365 483h684l-342 822zM524 1765q7 26 33.5 38t52.5 1l254 -121q14 -8 21.5 -22.5 t1.5 -28.5t-20 -20t-29 -2l-273 69q-27 7 -38.5 33t-2.5 53z" />
<glyph unicode="&#xc1;" horiz-adv-x="1413" d="M41 51q0 17 6 29l596 1431q16 41 64 41q47 0 63 -41l596 -1431q6 -12 6 -29q0 -29 -19 -48t-50 -19q-48 0 -66 41l-129 321h-803l-129 -321q-18 -41 -65 -41q-31 0 -50.5 19t-19.5 48zM365 483h684l-342 822zM520 1632q-6 14 1.5 28.5t21.5 22.5l254 121q26 11 52.5 -1 t33.5 -38q9 -27 -2.5 -53t-38.5 -33l-273 -69q-15 -4 -29 2t-20 20z" />
<glyph unicode="&#xc2;" horiz-adv-x="1413" d="M41 51q0 17 6 29l596 1431q16 41 64 41q47 0 63 -41l596 -1431q6 -12 6 -29q0 -29 -19 -48t-50 -19q-48 0 -66 41l-129 321h-803l-129 -321q-18 -41 -65 -41q-31 0 -50.5 19t-19.5 48zM365 483h684l-342 822zM507 1640.5q-14 28.5 7 51.5q26 29 66 75q71 80 89 96.5 t38 16.5t37.5 -15.5t82.5 -90.5q43 -49 72 -82q21 -23 7.5 -51.5t-44.5 -28.5q-19 0 -39 20l-116 131l-117 -131q-20 -20 -39 -20q-30 0 -44 28.5z" />
<glyph unicode="&#xc3;" horiz-adv-x="1413" d="M41 51q0 17 6 29l596 1431q16 41 64 41q47 0 63 -41l596 -1431q6 -12 6 -29q0 -29 -19 -48t-50 -19q-48 0 -66 41l-129 321h-803l-129 -321q-18 -41 -65 -41q-31 0 -50.5 19t-19.5 48zM365 483h684l-342 822zM475 1657q2 62 42.5 103.5t100.5 41.5q77 0 125 -73 q31 -35 54 -35q25 0 42 18.5t17 44.5q0 17 12 29t29 12t29 -12t12 -29q-1 -61 -42.5 -103t-98.5 -42q-74 0 -123 74q-32 36 -56 36q-26 0 -43.5 -19t-17.5 -46q0 -17 -12 -29t-29 -12t-29 12t-12 29z" />
<glyph unicode="&#xc4;" horiz-adv-x="1413" d="M41 51q0 17 6 29l596 1431q16 41 64 41q47 0 63 -41l596 -1431q6 -12 6 -29q0 -29 -19 -48t-50 -19q-48 0 -66 41l-129 321h-803l-129 -321q-18 -41 -65 -41q-31 0 -50.5 19t-19.5 48zM365 483h684l-342 822zM412 1712q0 37 27.5 63.5t64.5 26.5t63.5 -26.5t26.5 -63.5 q0 -38 -26.5 -65t-63.5 -27t-64.5 27t-27.5 65zM817 1712q0 37 27 63.5t65 26.5q37 0 62.5 -26.5t25.5 -63.5q0 -38 -25.5 -65t-62.5 -27q-38 0 -65 27t-27 65z" />
<glyph unicode="&#xc5;" horiz-adv-x="1413" d="M41 51q0 17 6 29l596 1431q16 41 64 41q47 0 63 -41l596 -1431q6 -12 6 -29q0 -29 -19 -48t-50 -19q-48 0 -66 41l-129 321h-803l-129 -321q-18 -41 -65 -41q-31 0 -50.5 19t-19.5 48zM365 483h684l-342 822zM555 1743q0 61 45 105t107 44t106.5 -44t44.5 -105 q0 -63 -44.5 -108.5t-106.5 -45.5t-107 45.5t-45 108.5zM643 1743q0 -28 18 -46t46 -18q26 0 43.5 18t17.5 46q0 26 -17.5 43.5t-43.5 17.5q-28 0 -46 -17.5t-18 -43.5z" />
<glyph unicode="&#xc6;" horiz-adv-x="2277" d="M33 43q-5 28 12 51l1047 1411q22 31 65 31h979q29 0 49.5 -20.5t20.5 -49.5t-20.5 -49t-49.5 -20h-909v-561h768q29 0 49 -20.5t20 -49.5t-20 -49.5t-49 -20.5h-768v-557h909q28 -2 49 -22t21 -47q0 -29 -21 -49.5t-49 -20.5h-979q-29 0 -49.5 20.5t-20.5 49.5v280h-677 l-250 -338q-17 -24 -46.5 -28t-52.5 14q-23 17 -28 45zM512 487h575v777z" />
<glyph unicode="&#xc7;" horiz-adv-x="1529" d="M70 766q0 164 63.5 313t171 256.5t256 171t311.5 62.5q162 1 309.5 -62t260.5 -176q20 -20 21 -49t-19 -49q-22 -20 -50 -20t-48 20q-99 96 -220 148.5t-252 52.5q-181 0 -334 -90t-240.5 -243.5t-86.5 -334.5q-1 -181 86.5 -334t240.5 -242.5t334 -89.5q133 0 255 52 t217 143q20 19 49 18.5t49 -20.5t19 -48t-21 -48q-115 -111 -259 -171.5t-304 -60.5l-23 -76q40 3 75.5 -14.5t55.5 -52.5q28 -47 13 -101.5t-64 -82.5q-46 -27 -99 -14t-85 59q-12 16 -4 31t23 14.5t28 -15.5q17 -28 49 -36.5t61 8.5q28 15 37 47t-8 63q-17 28 -47.5 37 t-59.5 -4q-12 -10 -27.5 -3.5t-12.5 25.5l32 117q-155 8 -294.5 75t-240 173t-159.5 250t-59 301z" />
<glyph unicode="&#xc8;" horiz-adv-x="1312" d="M123 70v1396q0 29 20.5 49.5t49.5 20.5h978q29 0 49.5 -20.5t20.5 -49.5t-20.5 -49t-49.5 -20h-909v-561h768q29 0 49.5 -20.5t20.5 -49.5t-20.5 -49.5t-49.5 -20.5h-768v-557h909q28 -2 49 -22t21 -47q0 -29 -21 -49.5t-49 -20.5h-978q-29 0 -49.5 20.5t-20.5 49.5z M514 1765q7 26 33.5 38t52.5 1l254 -121q14 -8 21.5 -22.5t1.5 -28.5t-20.5 -20t-29.5 -2l-272 69q-27 7 -38.5 33t-2.5 53z" />
<glyph unicode="&#xc9;" horiz-adv-x="1312" d="M123 70v1396q0 29 20.5 49.5t49.5 20.5h978q29 0 49.5 -20.5t20.5 -49.5t-20.5 -49t-49.5 -20h-909v-561h768q29 0 49.5 -20.5t20.5 -49.5t-20.5 -49.5t-49.5 -20.5h-768v-557h909q28 -2 49 -22t21 -47q0 -29 -21 -49.5t-49 -20.5h-978q-29 0 -49.5 20.5t-20.5 49.5z M510 1632q-6 14 1 28.5t21 22.5l254 121q26 11 52.5 -1t33.5 -38q9 -27 -2.5 -53t-38.5 -33l-272 -69q-15 -4 -29 2t-20 20z" />
<glyph unicode="&#xca;" horiz-adv-x="1312" d="M123 70v1396q0 29 20.5 49.5t49.5 20.5h978q29 0 49.5 -20.5t20.5 -49.5t-20.5 -49t-49.5 -20h-909v-561h768q29 0 49.5 -20.5t20.5 -49.5t-20.5 -49.5t-49.5 -20.5h-768v-557h909q28 -2 49 -22t21 -47q0 -29 -21 -49.5t-49 -20.5h-978q-29 0 -49.5 20.5t-20.5 49.5z M482 1640.5q-14 28.5 7 51.5q26 29 66 75q71 80 89 96.5t38 16.5t37.5 -15.5t82.5 -90.5q43 -49 72 -82q21 -23 8 -51.5t-44 -28.5q-19 0 -39 20l-117 131l-117 -131q-20 -20 -39 -20q-30 0 -44 28.5z" />
<glyph unicode="&#xcb;" horiz-adv-x="1312" d="M123 70v1396q0 29 20.5 49.5t49.5 20.5h978q29 0 49.5 -20.5t20.5 -49.5t-20.5 -49t-49.5 -20h-909v-561h768q29 0 49.5 -20.5t20.5 -49.5t-20.5 -49.5t-49.5 -20.5h-768v-557h909q28 -2 49 -22t21 -47q0 -29 -21 -49.5t-49 -20.5h-978q-29 0 -49.5 20.5t-20.5 49.5z M362 1712q0 36 28 63t65 27t63.5 -26.5t26.5 -63.5q0 -38 -26.5 -65t-63.5 -27t-65 27t-28 65zM768 1712q0 37 27 63.5t65 26.5q37 0 62.5 -26.5t25.5 -63.5q0 -38 -25.5 -65t-62.5 -27q-38 0 -65 27t-27 65z" />
<glyph unicode="&#xcc;" d="M12 1765q7 26 33.5 38t52.5 1l254 -121q14 -8 21.5 -22.5t1.5 -28.5t-20 -20t-29 -2l-273 69q-27 7 -38.5 33t-2.5 53zM123 53v1430q0 29 20.5 49t49.5 20t49 -20t20 -49v-1430q0 -29 -20 -49t-49 -20t-49.5 20t-20.5 49z" />
<glyph unicode="&#xcd;" d="M10 1632q-6 14 1.5 28.5t21.5 22.5l254 121q26 11 52.5 -1t33.5 -38q9 -27 -2.5 -53t-38.5 -33l-273 -69q-15 -4 -29 2t-20 20zM123 53v1430q0 29 20.5 49t49.5 20t49 -20t20 -49v-1430q0 -29 -20 -49t-49 -20t-49.5 20t-20.5 49z" />
<glyph unicode="&#xce;" d="M-7 1640.5q-14 28.5 7 51.5q26 29 66 75q71 80 89 96.5t38 16.5t37.5 -15.5t82.5 -90.5q43 -49 72 -82q21 -23 7.5 -51.5t-44.5 -28.5q-19 0 -39 20l-116 131l-117 -131q-20 -20 -39 -20q-30 0 -44 28.5zM123 53v1430q0 29 20.5 49t49.5 20t49 -20t20 -49v-1430 q0 -29 -20 -49t-49 -20t-49.5 20t-20.5 49z" />
<glyph unicode="&#xcf;" d="M-100 1712q0 37 27.5 63.5t64.5 26.5t63.5 -26.5t26.5 -63.5q0 -38 -26.5 -65t-63.5 -27t-64.5 27t-27.5 65zM123 53v1430q0 29 20.5 49t49.5 20t49 -20t20 -49v-1430q0 -29 -20 -49t-49 -20t-49.5 20t-20.5 49zM307 1712q0 37 26 63.5t64 26.5q37 0 62.5 -26.5 t25.5 -63.5q0 -38 -25.5 -65t-62.5 -27q-38 0 -64 27t-26 65z" />
<glyph unicode="&#xd0;" horiz-adv-x="1525" d="M25 768q0 29 20 49.5t49 20.5h68v628q0 29 20 49.5t49 20.5h455q209 0 385.5 -103t279.5 -279.5t103 -385.5t-103 -385.5t-279.5 -279.5t-385.5 -103h-455q-29 0 -49 20.5t-20 49.5v628h-68q-29 0 -49 20.5t-20 49.5zM301 139h385q171 0 315 84.5t227 229.5t83 315 q0 128 -49 244.5t-132.5 201t-199.5 134t-244 49.5h-385v-559h283q28 0 47.5 -20.5t19.5 -49.5t-19.5 -49.5t-47.5 -20.5h-283v-559z" />
<glyph unicode="&#xd1;" horiz-adv-x="1433" d="M123 53v1430q0 29 21 49t49 20q37 0 57 -26l921 -1264v1221q0 29 21 49t49 20q29 0 49.5 -20t20.5 -49v-1430q0 -29 -21 -49t-51 -20q-37 0 -57 30l-920 1260v-1221q0 -29 -20 -49t-49 -20q-28 0 -49 20t-21 49zM485 1616q2 62 43 103.5t101 41.5q77 0 125 -73 q31 -35 53 -35q25 0 42 18.5t17 44.5q0 17 12 29t29 12t29 -12t12 -29q-1 -61 -42.5 -103t-98.5 -42q-74 0 -123 74q-12 14 -16.5 18.5t-15.5 11t-23 6.5q-26 0 -44 -19t-18 -46q0 -17 -12 -29t-29 -12t-29 12t-12 29z" />
<glyph unicode="&#xd2;" horiz-adv-x="1748" d="M72 768q0 163 63.5 311.5t170.5 256t256 171.5t312 64q217 0 402 -108t293 -293t108 -402t-108 -402t-293 -293t-402 -108q-163 0 -312 64t-256 171.5t-170.5 256t-63.5 311.5zM215 768q0 -181 87.5 -334.5t239.5 -243.5t332 -90q135 0 257.5 53t210.5 143t140 213.5 t52 258.5t-52 258.5t-140 213.5t-210.5 143t-257.5 53q-180 0 -332 -90t-239.5 -243.5t-87.5 -334.5zM692 1765q7 26 33.5 38t52.5 1l254 -121q14 -8 21.5 -22.5t1.5 -28.5t-20 -20t-29 -2l-273 69q-27 7 -38.5 33t-2.5 53z" />
<glyph unicode="&#xd3;" horiz-adv-x="1748" d="M72 768q0 163 63.5 311.5t170.5 256t256 171.5t312 64q217 0 402 -108t293 -293t108 -402t-108 -402t-293 -293t-402 -108q-163 0 -312 64t-256 171.5t-170.5 256t-63.5 311.5zM215 768q0 -181 87.5 -334.5t239.5 -243.5t332 -90q135 0 257.5 53t210.5 143t140 213.5 t52 258.5t-52 258.5t-140 213.5t-210.5 143t-257.5 53q-180 0 -332 -90t-239.5 -243.5t-87.5 -334.5zM688 1632q-6 14 1.5 28.5t21.5 22.5l254 121q26 11 52.5 -1t33.5 -38q9 -27 -2.5 -53t-38.5 -33l-273 -69q-15 -4 -29 2t-20 20z" />
<glyph unicode="&#xd4;" horiz-adv-x="1748" d="M72 768q0 163 63.5 311.5t170.5 256t256 171.5t312 64q217 0 402 -108t293 -293t108 -402t-108 -402t-293 -293t-402 -108q-163 0 -312 64t-256 171.5t-170.5 256t-63.5 311.5zM215 768q0 -181 87.5 -334.5t239.5 -243.5t332 -90q135 0 257.5 53t210.5 143t140 213.5 t52 258.5t-52 258.5t-140 213.5t-210.5 143t-257.5 53q-180 0 -332 -90t-239.5 -243.5t-87.5 -334.5zM675 1640.5q-14 28.5 7 51.5q29 33 72 82q66 76 83 91t37 15t38.5 -16.5t88.5 -96.5q40 -46 66 -75q21 -23 7.5 -51.5t-44.5 -28.5q-19 0 -39 20l-117 131l-116 -131 q-20 -20 -39 -20q-30 0 -44 28.5z" />
<glyph unicode="&#xd5;" horiz-adv-x="1748" d="M72 768q0 163 63.5 311.5t170.5 256t256 171.5t312 64q217 0 402 -108t293 -293t108 -402t-108 -402t-293 -293t-402 -108q-163 0 -312 64t-256 171.5t-170.5 256t-63.5 311.5zM215 768q0 -181 87.5 -334.5t239.5 -243.5t332 -90q135 0 257.5 53t210.5 143t140 213.5 t52 258.5t-52 258.5t-140 213.5t-210.5 143t-257.5 53q-180 0 -332 -90t-239.5 -243.5t-87.5 -334.5zM639 1677q2 62 42.5 104t100.5 42q76 0 125 -74q31 -35 54 -35q25 0 42 19t17 45q0 17 12 29t29 12t29 -12t12 -29q-1 -61 -42.5 -103.5t-98.5 -42.5q-74 0 -123 74 q-12 14 -17 19t-16 11.5t-23 6.5q-26 0 -43.5 -19.5t-17.5 -46.5q0 -17 -12 -29t-29 -12t-29 12t-12 29z" />
<glyph unicode="&#xd6;" horiz-adv-x="1748" d="M72 768q0 163 63.5 311.5t170.5 256t256 171.5t312 64q217 0 402 -108t293 -293t108 -402t-108 -402t-293 -293t-402 -108q-163 0 -312 64t-256 171.5t-170.5 256t-63.5 311.5zM215 768q0 -181 87.5 -334.5t239.5 -243.5t332 -90q135 0 257.5 53t210.5 143t140 213.5 t52 258.5t-52 258.5t-140 213.5t-210.5 143t-257.5 53q-180 0 -332 -90t-239.5 -243.5t-87.5 -334.5zM578 1712q0 37 27.5 63.5t64.5 26.5t63.5 -26.5t26.5 -63.5q0 -39 -26.5 -65.5t-63.5 -26.5t-64.5 26.5t-27.5 65.5zM985 1712q0 37 26 63.5t64 26.5q37 0 63.5 -26.5 t26.5 -63.5q0 -39 -26.5 -65.5t-63.5 -26.5q-38 0 -64 26t-26 66z" />
<glyph unicode="&#xd7;" horiz-adv-x="1355" d="M66 50q0 28 20 50l492 490l-490 491q-22 20 -21 49.5t23 51.5q20 20 48 20t50 -20l490 -492l489 490q20 22 49.5 22t49.5 -22q20 -20 21 -49.5t-19 -51.5l-490 -489l490 -490q22 -20 22 -49t-22 -49q-20 -20 -49.5 -21t-51.5 19l-489 489l-492 -489q-20 -22 -49 -21 t-51 23q-20 20 -20 48z" />
<glyph unicode="&#xd8;" horiz-adv-x="1769" d="M82 768q0 218 107.5 402.5t292.5 292.5t403 108q144 0 276 -49t238 -138l149 150q22 20 50.5 20t48.5 -20q22 -22 23 -51t-21 -49l-150 -150q189 -225 189 -516q0 -217 -108 -402t-293 -293t-402 -108q-145 0 -277.5 49t-238.5 138l-150 -150q-22 -20 -51 -19t-49 21 q-22 20 -22 49t22 49l149 150q-186 221 -186 516zM225 768q0 -242 142 -416l931 932q-187 152 -413 152q-135 0 -257.5 -53t-210.5 -143t-140 -213.5t-52 -258.5zM469 252q187 -152 416 -152q180 0 332 90t239.5 243.5t87.5 334.5q0 238 -145 416z" />
<glyph unicode="&#xd9;" horiz-adv-x="1431" d="M123 559v924q0 29 20.5 49t49.5 20t49 -20t20 -49v-924q0 -124 60.5 -229.5t165.5 -167.5t229 -62q187 0 319.5 135t132.5 324v924q0 29 20.5 49t49.5 20t49.5 -20t20.5 -49v-924q0 -161 -79.5 -298t-216 -216.5t-296.5 -79.5q-161 0 -298 79.5t-216.5 216.5t-79.5 298z M528 1765q7 26 33.5 38t52.5 1l254 -121q14 -8 21.5 -22.5t1.5 -28.5t-20 -20t-29 -2l-273 69q-27 7 -38.5 33t-2.5 53z" />
<glyph unicode="&#xda;" horiz-adv-x="1431" d="M123 559v924q0 29 20.5 49t49.5 20t49 -20t20 -49v-924q0 -124 60.5 -229.5t165.5 -167.5t229 -62q187 0 319.5 135t132.5 324v924q0 29 20.5 49t49.5 20t49.5 -20t20.5 -49v-924q0 -161 -79.5 -298t-216 -216.5t-296.5 -79.5q-161 0 -298 79.5t-216.5 216.5t-79.5 298z M524 1632q-6 14 1.5 28.5t21.5 22.5l254 121q26 11 52.5 -1t33.5 -38q9 -27 -2.5 -53t-38.5 -33l-273 -69q-15 -4 -29 2t-20 20z" />
<glyph unicode="&#xdb;" horiz-adv-x="1431" d="M123 559v924q0 29 20.5 49t49.5 20t49 -20t20 -49v-924q0 -124 60.5 -229.5t165.5 -167.5t229 -62q187 0 319.5 135t132.5 324v924q0 29 20.5 49t49.5 20t49.5 -20t20.5 -49v-924q0 -161 -79.5 -298t-216 -216.5t-296.5 -79.5q-161 0 -298 79.5t-216.5 216.5t-79.5 298z M515 1640.5q-14 28.5 7 51.5q26 29 66 75q71 80 89 96.5t38 16.5t37.5 -15.5t82.5 -90.5q43 -49 72 -82q21 -23 7.5 -51.5t-44.5 -28.5q-19 0 -39 20l-116 131l-117 -131q-20 -20 -39 -20q-30 0 -44 28.5z" />
<glyph unicode="&#xdc;" horiz-adv-x="1431" d="M123 559v924q0 29 20.5 49t49.5 20t49 -20t20 -49v-924q0 -124 60.5 -229.5t165.5 -167.5t229 -62q187 0 319.5 135t132.5 324v924q0 29 20.5 49t49.5 20t49.5 -20t20.5 -49v-924q0 -161 -79.5 -298t-216 -216.5t-296.5 -79.5q-161 0 -298 79.5t-216.5 216.5t-79.5 298z M420 1712q0 37 27.5 63.5t64.5 26.5t63.5 -26.5t26.5 -63.5q0 -38 -26.5 -65t-63.5 -27t-64.5 27t-27.5 65zM827 1712q0 37 26.5 63.5t64.5 26.5q37 0 62.5 -26.5t25.5 -63.5q0 -38 -25.5 -65t-62.5 -27q-38 0 -64.5 27t-26.5 65z" />
<glyph unicode="&#xdd;" horiz-adv-x="1282" d="M38.5 1513q19.5 39 61.5 39q37 0 58 -28l483 -680l483 680q21 28 58 28q42 0 61.5 -39t-4.5 -71l-528 -740v-649q0 -29 -20.5 -49t-49.5 -20t-49.5 20t-20.5 49v649l-528 740q-24 32 -4.5 71zM459 1632q-6 14 1 28.5t21 22.5l254 121q26 11 52.5 -1t33.5 -38 q9 -27 -2.5 -53t-38.5 -33l-272 -69q-15 -4 -29 2t-20 20z" />
<glyph unicode="&#xde;" horiz-adv-x="1331" d="M123 53v1430q0 29 20.5 49t49.5 20t49 -20t20 -49v-140h584q170 0 290.5 -119t120.5 -288q0 -170 -120.5 -291t-290.5 -121h-584v-471q0 -29 -20 -49t-49 -20t-49.5 20t-20.5 49zM262 664h584q113 0 190.5 79.5t77.5 192.5q0 111 -77.5 189.5t-190.5 78.5h-584v-540z" />
<glyph unicode="&#xdf;" horiz-adv-x="1130" d="M123 53v1116q0 166 117.5 284t283.5 118q167 0 285.5 -118t118.5 -284q0 -90 -37.5 -169t-102.5 -136q117 -55 189 -166t72 -245q0 -186 -133 -319.5t-320 -133.5h-209q-29 0 -49.5 20.5t-20.5 49.5t20.5 49t49.5 20h209q129 0 219 92.5t90 221.5q0 132 -90 223.5 t-219 91.5h-209q-29 0 -49.5 20.5t-20.5 49.5t20.5 49t49.5 20h137q109 0 184.5 76.5t75.5 185.5t-76 188t-184 79q-106 0 -184 -79t-78 -188v-1116q0 -29 -20 -49t-49 -20t-49.5 20t-20.5 49z" />
<glyph unicode="&#xe0;" horiz-adv-x="1275" d="M72 385q0 89 30 163t91 132t163.5 90.5t237.5 32.5q142 0 250.5 -55t169.5 -132v248q0 91 -107.5 157t-257.5 66q-188 0 -352 -92q-15 -12 -39 -12q-29 0 -49.5 20.5t-20.5 49.5q0 38 29 57q171 113 432 113q137 0 253 -48.5t183.5 -131t67.5 -179.5v-811 q0 -29 -20.5 -49t-49.5 -20t-49 20t-20 49v101q-71 -86 -185 -137.5t-235 -51.5q-135 0 -237.5 32.5t-163.5 91t-91 133t-30 163.5zM215 385q0 -127 92.5 -206t286.5 -79q109 0 206 38.5t155.5 104.5t58.5 142t-58.5 141.5t-155.5 103.5t-206 38q-194 0 -286.5 -78 t-92.5 -205zM475 1534q7 26 33.5 38t52.5 1l254 -121q14 -8 21.5 -22.5t1.5 -28.5t-20.5 -20.5t-29.5 -2.5l-272 70q-27 7 -38.5 33t-2.5 53z" />
<glyph unicode="&#xe1;" horiz-adv-x="1275" d="M72 385q0 89 30 163t91 132t163.5 90.5t237.5 32.5q142 0 250.5 -55t169.5 -132v248q0 91 -107.5 157t-257.5 66q-188 0 -352 -92q-15 -12 -39 -12q-29 0 -49.5 20.5t-20.5 49.5q0 38 29 57q171 113 432 113q137 0 253 -48.5t183.5 -131t67.5 -179.5v-811 q0 -29 -20.5 -49t-49.5 -20t-49 20t-20 49v101q-71 -86 -185 -137.5t-235 -51.5q-135 0 -237.5 32.5t-163.5 91t-91 133t-30 163.5zM215 385q0 -127 92.5 -206t286.5 -79q109 0 206 38.5t155.5 104.5t58.5 142t-58.5 141.5t-155.5 103.5t-206 38q-194 0 -286.5 -78 t-92.5 -205zM471 1401q-6 14 1.5 28.5t21.5 22.5l254 121q26 11 52.5 -1t33.5 -38q9 -27 -2.5 -53t-38.5 -33l-273 -70q-15 -4 -29 2.5t-20 20.5z" />
<glyph unicode="&#xe2;" horiz-adv-x="1275" d="M72 385q0 89 30 163t91 132t163.5 90.5t237.5 32.5q142 0 250.5 -55t169.5 -132v248q0 91 -107.5 157t-257.5 66q-188 0 -352 -92q-15 -12 -39 -12q-29 0 -49.5 20.5t-20.5 49.5q0 38 29 57q171 113 432 113q137 0 253 -48.5t183.5 -131t67.5 -179.5v-811 q0 -29 -20.5 -49t-49.5 -20t-49 20t-20 49v101q-71 -86 -185 -137.5t-235 -51.5q-135 0 -237.5 32.5t-163.5 91t-91 133t-30 163.5zM215 385q0 -127 92.5 -206t286.5 -79q109 0 206 38.5t155.5 104.5t58.5 142t-58.5 141.5t-155.5 103.5t-206 38q-194 0 -286.5 -78 t-92.5 -205zM450 1386.5q-14 28.5 7 51.5q29 33 72 82q66 76 83 91t37 15t38.5 -16.5t88.5 -96.5q40 -46 66 -75q21 -23 7.5 -51.5t-44.5 -28.5q-19 0 -39 20l-117 131l-117 -131q-20 -20 -38 -20q-30 0 -44 28.5z" />
<glyph unicode="&#xe3;" horiz-adv-x="1275" d="M72 385q0 89 30 163t91 132t163.5 90.5t237.5 32.5q142 0 250.5 -55t169.5 -132v248q0 91 -107.5 157t-257.5 66q-188 0 -352 -92q-15 -12 -39 -12q-29 0 -49.5 20.5t-20.5 49.5q0 38 29 57q171 113 432 113q137 0 253 -48.5t183.5 -131t67.5 -179.5v-811 q0 -29 -20.5 -49t-49.5 -20t-49 20t-20 49v101q-71 -86 -185 -137.5t-235 -51.5q-135 0 -237.5 32.5t-163.5 91t-91 133t-30 163.5zM215 385q0 -127 92.5 -206t286.5 -79q109 0 206 38.5t155.5 104.5t58.5 142t-58.5 141.5t-155.5 103.5t-206 38q-194 0 -286.5 -78 t-92.5 -205zM420 1425q2 62 42.5 104t100.5 42q76 0 125 -74q31 -35 53 -35q25 0 42.5 19t17.5 45q0 17 12 29t29 12t29 -12t12 -29q-1 -61 -43 -103.5t-99 -42.5q-74 0 -123 74q-1 1 -6 6.5t-6 7t-5.5 6t-6.5 6t-6.5 4.5t-8 4t-7.5 2t-9 1q-26 0 -43.5 -19.5t-17.5 -46.5 q0 -17 -12 -29t-29 -12t-29 12t-12 29z" />
<glyph unicode="&#xe4;" horiz-adv-x="1275" d="M72 385q0 89 30 163t91 132t163.5 90.5t237.5 32.5q142 0 250.5 -55t169.5 -132v248q0 91 -107.5 157t-257.5 66q-188 0 -352 -92q-15 -12 -39 -12q-29 0 -49.5 20.5t-20.5 49.5q0 38 29 57q171 113 432 113q137 0 253 -48.5t183.5 -131t67.5 -179.5v-811 q0 -29 -20.5 -49t-49.5 -20t-49 20t-20 49v101q-71 -86 -185 -137.5t-235 -51.5q-135 0 -237.5 32.5t-163.5 91t-91 133t-30 163.5zM215 385q0 -127 92.5 -206t286.5 -79q109 0 206 38.5t155.5 104.5t58.5 142t-58.5 141.5t-155.5 103.5t-206 38q-194 0 -286.5 -78 t-92.5 -205zM350 1481q0 37 27.5 63.5t64.5 26.5t63.5 -26.5t26.5 -63.5q0 -38 -26.5 -65t-63.5 -27t-64.5 27t-27.5 65zM756 1481q0 37 27 63.5t65 26.5q37 0 62.5 -26.5t25.5 -63.5q0 -38 -25.5 -65t-62.5 -27q-38 0 -65 27t-27 65z" />
<glyph unicode="&#xe5;" horiz-adv-x="1275" d="M72 385q0 89 30 163t91 132t163.5 90.5t237.5 32.5q142 0 250.5 -55t169.5 -132v248q0 91 -107.5 157t-257.5 66q-188 0 -352 -92q-15 -12 -39 -12q-29 0 -49.5 20.5t-20.5 49.5q0 38 29 57q171 113 432 113q137 0 253 -48.5t183.5 -131t67.5 -179.5v-811 q0 -29 -20.5 -49t-49.5 -20t-49 20t-20 49v101q-71 -86 -185 -137.5t-235 -51.5q-135 0 -237.5 32.5t-163.5 91t-91 133t-30 163.5zM215 385q0 -127 92.5 -206t286.5 -79q109 0 206 38.5t155.5 104.5t58.5 142t-58.5 141.5t-155.5 103.5t-206 38q-194 0 -286.5 -78 t-92.5 -205zM496 1489q0 61 45 105t108 44q60 0 105 -44t45 -105q0 -63 -45 -108.5t-105 -45.5q-63 0 -108 45.5t-45 108.5zM584 1489q0 -28 18.5 -46t46.5 -18q25 0 43.5 18.5t18.5 45.5q0 26 -18.5 43.5t-43.5 17.5q-28 0 -46.5 -17.5t-18.5 -43.5z" />
<glyph unicode="&#xe6;" horiz-adv-x="2340" d="M72 385q0 89 30 163t91 132t163.5 90.5t237.5 32.5q142 0 250.5 -55t169.5 -132v248q0 91 -107.5 157t-257.5 66q-188 0 -352 -92q-15 -12 -39 -12q-29 0 -49.5 20.5t-20.5 49.5q0 38 29 57q171 113 432 113q169 0 303.5 -73t180.5 -185q87 119 217 187.5t282 68.5 q126 0 241 -49t199 -132.5t134.5 -200t52.5 -245.5q0 -29 -21.5 -49.5t-50.5 -20.5h-1032q27 -181 161 -302.5t316 -121.5q121 0 224 56t169 153q21 35 60 35q43 0 62.5 -38.5t-3.5 -72.5q-75 -113 -214 -190.5t-298 -77.5q-143 0 -267.5 62t-211.5 170v-144 q0 -29 -20.5 -49t-49.5 -20t-49 20t-20 49v101q-71 -86 -185 -137.5t-235 -51.5q-135 0 -237.5 32.5t-163.5 91t-91 133t-30 163.5zM215 385q0 -127 92.5 -206t286.5 -79q109 0 206 38.5t155.5 104.5t58.5 142t-58.5 141.5t-155.5 103.5t-206 38q-194 0 -286.5 -78 t-92.5 -205zM1155 664h956q-27 179 -162 300t-317 121t-316 -121t-161 -300z" />
<glyph unicode="&#xe7;" horiz-adv-x="1247" d="M82 594q0 171 84 315.5t229 228.5t316 85q256 0 446 -187q19 -21 19.5 -49t-19.5 -49q-20 -20 -49 -19t-51 21q-147 144 -346 147q-132 -1 -244 -67.5t-177 -179t-65 -244.5q0 -134 65 -248t177 -181t244 -67q99 0 189 40.5t159 109.5q20 19 48 18.5t48 -20.5 q22 -20 22 -48.5t-20 -47.5q-187 -181 -436 -187l-23 -76q40 3 75.5 -14.5t55.5 -52.5q28 -47 13 -101.5t-64 -82.5q-46 -27 -99 -14t-85 59q-12 16 -4 31t23 14.5t28 -15.5q17 -28 49.5 -36.5t61.5 8.5q28 15 36.5 47t-8.5 63q-17 28 -47 37t-59 -4q-12 -10 -28 -3.5 t-13 25.5l33 117q-121 9 -229 62t-186 135.5t-123.5 194.5t-45.5 235z" />
<glyph unicode="&#xe8;" horiz-adv-x="1415" d="M82 594q0 170 84 314.5t228 228.5t313 84q168 0 311 -83t227.5 -227.5t87.5 -316.5q0 -29 -21 -49.5t-50 -20.5h-1033q27 -181 161.5 -302.5t316.5 -121.5q121 0 224 56t169 153q21 35 59 35q43 0 63 -38.5t-3 -72.5q-75 -113 -214 -190.5t-298 -77.5q-169 0 -313 84.5 t-228 229.5t-84 315zM229 664h957q-27 179 -162 300t-317 121t-316.5 -121t-161.5 -300zM528 1534q7 26 33.5 38t52.5 1l254 -121q14 -8 21.5 -22.5t1.5 -28.5t-20 -20.5t-29 -2.5l-273 70q-27 7 -38.5 33t-2.5 53z" />
<glyph unicode="&#xe9;" horiz-adv-x="1415" d="M82 594q0 170 84 314.5t228 228.5t313 84q168 0 311 -83t227.5 -227.5t87.5 -316.5q0 -29 -21 -49.5t-50 -20.5h-1033q27 -181 161.5 -302.5t316.5 -121.5q121 0 224 56t169 153q21 35 59 35q43 0 63 -38.5t-3 -72.5q-75 -113 -214 -190.5t-298 -77.5q-169 0 -313 84.5 t-228 229.5t-84 315zM229 664h957q-27 179 -162 300t-317 121t-316.5 -121t-161.5 -300zM524 1401q-6 14 1.5 28.5t21.5 22.5l254 121q26 11 52.5 -1t33.5 -38q9 -27 -2.5 -53t-38.5 -33l-273 -70q-15 -4 -29 2.5t-20 20.5z" />
<glyph unicode="&#xea;" horiz-adv-x="1415" d="M82 594q0 170 84 314.5t228 228.5t313 84q168 0 311 -83t227.5 -227.5t87.5 -316.5q0 -29 -21 -49.5t-50 -20.5h-1033q27 -181 161.5 -302.5t316.5 -121.5q121 0 224 56t169 153q21 35 59 35q43 0 63 -38.5t-3 -72.5q-75 -113 -214 -190.5t-298 -77.5q-169 0 -313 84.5 t-228 229.5t-84 315zM229 664h957q-27 179 -162 300t-317 121t-316.5 -121t-161.5 -300zM507 1386.5q-14 28.5 7 51.5q26 29 66 75q71 80 89 96.5t38 16.5t37.5 -15.5t82.5 -90.5q43 -49 72 -82q21 -23 7.5 -51.5t-44.5 -28.5q-19 0 -39 20l-116 131l-117 -131 q-20 -20 -39 -20q-30 0 -44 28.5z" />
<glyph unicode="&#xeb;" horiz-adv-x="1415" d="M82 594q0 170 84 314.5t228 228.5t313 84q168 0 311 -83t227.5 -227.5t87.5 -316.5q0 -29 -21 -49.5t-50 -20.5h-1033q27 -181 161.5 -302.5t316.5 -121.5q121 0 224 56t169 153q21 35 59 35q43 0 63 -38.5t-3 -72.5q-75 -113 -214 -190.5t-298 -77.5q-169 0 -313 84.5 t-228 229.5t-84 315zM229 664h957q-27 179 -162 300t-317 121t-316.5 -121t-161.5 -300zM414 1481q0 37 27.5 63.5t64.5 26.5t63.5 -26.5t26.5 -63.5q0 -38 -26.5 -65t-63.5 -27t-64.5 27t-27.5 65zM819 1481q0 37 27 63.5t65 26.5q37 0 62.5 -26.5t25.5 -63.5 q0 -38 -25.5 -65t-62.5 -27q-38 0 -65 27t-27 65z" />
<glyph unicode="&#xec;" d="M12 1534q7 26 33.5 38t52.5 1l254 -121q14 -8 21.5 -22.5t1.5 -28.5t-20 -20.5t-29 -2.5l-273 70q-27 7 -38.5 33t-2.5 53zM123 53v1080q0 29 20.5 49t49.5 20t49 -20t20 -49v-1080q0 -29 -20 -49t-49 -20t-49.5 20t-20.5 49z" />
<glyph unicode="&#xed;" d="M12 1401q-6 14 1.5 28.5t21.5 22.5l254 121q26 11 52.5 -1t33.5 -38q9 -27 -2.5 -53t-38.5 -33l-273 -70q-15 -4 -29 2.5t-20 20.5zM123 53v1080q0 29 20.5 49t49.5 20t49 -20t20 -49v-1080q0 -29 -20 -49t-49 -20t-49.5 20t-20.5 49z" />
<glyph unicode="&#xee;" d="M-7 1386.5q-14 28.5 7 51.5q26 29 66 75q71 80 89 96.5t38 16.5t37.5 -15.5t82.5 -90.5q43 -49 72 -82q21 -23 7.5 -51.5t-44.5 -28.5q-19 0 -39 20l-116 131l-117 -131q-20 -20 -39 -20q-30 0 -44 28.5zM123 53v1080q0 29 20.5 49t49.5 20t49 -20t20 -49v-1080 q0 -29 -20 -49t-49 -20t-49.5 20t-20.5 49z" />
<glyph unicode="&#xef;" d="M-61 1481q0 37 26.5 63.5t63.5 26.5t64.5 -26.5t27.5 -63.5q0 -38 -27.5 -65t-64.5 -27t-63.5 27t-26.5 65zM123 53v1080q0 29 20.5 49t49.5 20t49 -20t20 -49v-1080q0 -29 -20 -49t-49 -20t-49.5 20t-20.5 49zM266 1481q0 37 26.5 63.5t65.5 26.5q37 0 62.5 -26.5 t25.5 -63.5q0 -38 -25.5 -65t-62.5 -27q-39 0 -65.5 26.5t-26.5 65.5z" />
<glyph unicode="&#xf0;" horiz-adv-x="1384" d="M82 578q0 115 50 222t130 183t183.5 121t207.5 45q140 0 234 -66l2 7l-268 231l-150 -41q-22 -6 -40.5 4t-22.5 31q-6 21 3 40t29 25l95 27l-29 27q-18 22 -21 51q2 28 22 47.5t48 19.5q24 0 55 -24l78 -78l154 45q21 5 39 -6.5t24 -32.5q6 -20 -4.5 -38.5t-30.5 -24.5 l-96 -27l338 -346q87 -92 139 -207t52 -238q-1 -165 -82.5 -305t-222.5 -222t-308 -83q-124 0 -236.5 48.5t-194.5 130t-130 195.5t-47 239zM225 578q1 -129 63.5 -239t169.5 -174.5t234 -64.5q194 0 329.5 139.5t137.5 338.5q1 181 -139 308.5t-328 127.5q-116 0 -222 -54 t-175 -156t-70 -226z" />
<glyph unicode="&#xf1;" horiz-adv-x="1257" d="M123 53v1080q0 29 20.5 49t49.5 20t49 -20t20 -49v-177q28 93 143 179t257 86q218 0 345.5 -130.5t127.5 -342.5v-695q0 -29 -20.5 -49t-49.5 -20t-49.5 20t-20.5 49v695q0 151 -91.5 244t-241.5 93q-98 0 -189 -47t-149.5 -129.5t-61.5 -177.5v-678q0 -29 -20 -49 t-49 -20t-49.5 20t-20.5 49zM426 1425q2 62 42.5 104t100.5 42q76 0 125 -74q31 -35 54 -35q25 0 42 19t17 45q0 17 12 29t29 12t29 -12t12 -29q-1 -61 -42.5 -103.5t-98.5 -42.5q-74 0 -123 74q-12 14 -17 19t-16 11.5t-23 6.5q-26 0 -43.5 -19.5t-17.5 -46.5 q0 -17 -12 -29t-29 -12t-29 12t-12 29z" />
<glyph unicode="&#xf2;" horiz-adv-x="1423" d="M82 594q0 170 84.5 314.5t229.5 228.5t315 84q171 0 316 -84t229.5 -228.5t84.5 -314.5q0 -171 -84.5 -316t-229.5 -229t-316 -84q-170 0 -315 84t-229.5 229t-84.5 316zM225 594q0 -134 65 -247.5t177 -180t244 -66.5q134 0 246 66.5t176.5 180t64.5 247.5 q0 203 -142 347t-345 144q-132 0 -244 -66t-177 -179t-65 -246zM537 1534q7 26 33.5 38t52.5 1l254 -121q14 -8 21 -22.5t1 -28.5t-20 -20.5t-29 -2.5l-272 70q-27 7 -38.5 33t-2.5 53z" />
<glyph unicode="&#xf3;" horiz-adv-x="1423" d="M82 594q0 170 84.5 314.5t229.5 228.5t315 84q171 0 316 -84t229.5 -228.5t84.5 -314.5q0 -171 -84.5 -316t-229.5 -229t-316 -84q-170 0 -315 84t-229.5 229t-84.5 316zM225 594q0 -134 65 -247.5t177 -180t244 -66.5q134 0 246 66.5t176.5 180t64.5 247.5 q0 203 -142 347t-345 144q-132 0 -244 -66t-177 -179t-65 -246zM532 1401q-6 14 1.5 28.5t21.5 22.5l254 121q26 11 52.5 -1t33.5 -38q9 -27 -2.5 -53t-38.5 -33l-272 -70q-15 -4 -29.5 2.5t-20.5 20.5z" />
<glyph unicode="&#xf4;" horiz-adv-x="1423" d="M82 594q0 170 84.5 314.5t229.5 228.5t315 84q171 0 316 -84t229.5 -228.5t84.5 -314.5q0 -171 -84.5 -316t-229.5 -229t-316 -84q-170 0 -315 84t-229.5 229t-84.5 316zM225 594q0 -134 65 -247.5t177 -180t244 -66.5q134 0 246 66.5t176.5 180t64.5 247.5 q0 203 -142 347t-345 144q-132 0 -244 -66t-177 -179t-65 -246zM511 1386.5q-14 28.5 7 51.5q26 29 66 75q71 80 89 96.5t38 16.5t37.5 -15.5t82.5 -90.5q43 -49 72 -82q21 -23 7.5 -51.5t-44.5 -28.5q-19 0 -39 20l-116 131l-117 -131q-20 -20 -39 -20q-30 0 -44 28.5z" />
<glyph unicode="&#xf5;" horiz-adv-x="1423" d="M82 594q0 170 84.5 314.5t229.5 228.5t315 84q171 0 316 -84t229.5 -228.5t84.5 -314.5q0 -171 -84.5 -316t-229.5 -229t-316 -84q-170 0 -315 84t-229.5 229t-84.5 316zM225 594q0 -134 65 -247.5t177 -180t244 -66.5q134 0 246 66.5t176.5 180t64.5 247.5 q0 203 -142 347t-345 144q-132 0 -244 -66t-177 -179t-65 -246zM475 1425q2 62 42.5 104t100.5 42q76 0 125 -74q31 -35 54 -35q25 0 42 19t17 45q0 17 12 29t29 12t29 -12t12 -29q-1 -61 -42.5 -103.5t-98.5 -42.5q-74 0 -123 74q-12 14 -17 19t-16 11.5t-23 6.5 q-26 0 -43.5 -19.5t-17.5 -46.5q0 -17 -12 -29t-29 -12t-29 12t-12 29z" />
<glyph unicode="&#xf6;" horiz-adv-x="1423" d="M82 594q0 170 84.5 314.5t229.5 228.5t315 84q171 0 316 -84t229.5 -228.5t84.5 -314.5q0 -171 -84.5 -316t-229.5 -229t-316 -84q-170 0 -315 84t-229.5 229t-84.5 316zM225 594q0 -134 65 -247.5t177 -180t244 -66.5q134 0 246 66.5t176.5 180t64.5 247.5 q0 203 -142 347t-345 144q-132 0 -244 -66t-177 -179t-65 -246zM418 1481q0 37 27.5 63.5t64.5 26.5t63.5 -26.5t26.5 -63.5q0 -38 -26.5 -65t-63.5 -27t-64.5 27t-27.5 65zM823 1481q0 37 27 63.5t65 26.5q37 0 63 -26.5t26 -63.5q0 -38 -26 -65t-63 -27q-38 0 -65 27 t-27 65z" />
<glyph unicode="&#xf7;" horiz-adv-x="1390" d="M86 592q0 29 19.5 49.5t48.5 20.5h1081q29 0 49.5 -20.5t20.5 -49.5t-20.5 -48.5t-49.5 -19.5h-1081q-29 0 -48.5 19.5t-19.5 48.5zM592 94q0 42 31 72.5t73 30.5q44 0 74.5 -30.5t30.5 -72.5q0 -44 -30.5 -75t-74.5 -31q-43 0 -73.5 31t-30.5 75zM592 1096q0 44 30.5 75 t73.5 31q44 0 74.5 -31t30.5 -75q0 -43 -30.5 -74t-74.5 -31q-43 0 -73.5 31t-30.5 74z" />
<glyph unicode="&#xf8;" horiz-adv-x="1439" d="M90 594q0 170 84.5 314.5t229.5 228.5t315 84q218 0 393 -138l98 99q20 22 49.5 22t49.5 -22q20 -20 21 -49.5t-19 -51.5l-99 -98q138 -170 138 -389q0 -128 -50 -244.5t-134.5 -201t-201.5 -134t-245 -49.5q-216 0 -391 135l-99 -98q-20 -22 -49 -21t-51 23 q-20 20 -20 48t20 50l98 99q-137 169 -137 393zM233 594q0 -168 95 -293l684 684q-139 100 -293 100q-132 0 -244 -66t-177 -179t-65 -246zM428 201q140 -101 291 -101q134 0 246 66.5t176.5 180t64.5 247.5q0 163 -92 291z" />
<glyph unicode="&#xf9;" horiz-adv-x="1257" d="M123 438v695q0 29 20.5 49t49.5 20t49 -20t20 -49v-695q0 -151 92 -244.5t242 -93.5q98 0 188.5 47.5t149 130t61.5 177.5v678q0 29 20.5 49t49.5 20t49.5 -20t20.5 -49v-1080q0 -29 -20.5 -49t-49.5 -20t-49.5 20t-20.5 49v176q-28 -93 -142.5 -178.5t-256.5 -85.5 q-218 0 -345.5 130.5t-127.5 342.5zM453 1534q7 26 33.5 38t52.5 1l254 -121q14 -8 21 -22.5t1 -28.5t-20 -20.5t-29 -2.5l-272 70q-27 7 -38.5 33t-2.5 53z" />
<glyph unicode="&#xfa;" horiz-adv-x="1257" d="M123 438v695q0 29 20.5 49t49.5 20t49 -20t20 -49v-695q0 -151 92 -244.5t242 -93.5q98 0 188.5 47.5t149 130t61.5 177.5v678q0 29 20.5 49t49.5 20t49.5 -20t20.5 -49v-1080q0 -29 -20.5 -49t-49.5 -20t-49.5 20t-20.5 49v176q-28 -93 -142.5 -178.5t-256.5 -85.5 q-218 0 -345.5 130.5t-127.5 342.5zM449 1401q-6 14 1 28.5t21 22.5l254 121q26 11 52.5 -1t33.5 -38q9 -27 -2.5 -53t-38.5 -33l-272 -70q-15 -4 -29 2.5t-20 20.5z" />
<glyph unicode="&#xfb;" horiz-adv-x="1257" d="M123 438v695q0 29 20.5 49t49.5 20t49 -20t20 -49v-695q0 -151 92 -244.5t242 -93.5q98 0 188.5 47.5t149 130t61.5 177.5v678q0 29 20.5 49t49.5 20t49.5 -20t20.5 -49v-1080q0 -29 -20.5 -49t-49.5 -20t-49.5 20t-20.5 49v176q-28 -93 -142.5 -178.5t-256.5 -85.5 q-218 0 -345.5 130.5t-127.5 342.5zM427 1386.5q-14 28.5 7 51.5q26 29 66 75q71 80 89 96.5t38 16.5t37.5 -15.5t82.5 -90.5q43 -49 72 -82q21 -23 7.5 -51.5t-44.5 -28.5q-19 0 -39 20l-116 131l-117 -131q-20 -20 -39 -20q-30 0 -44 28.5z" />
<glyph unicode="&#xfc;" horiz-adv-x="1257" d="M123 438v695q0 29 20.5 49t49.5 20t49 -20t20 -49v-695q0 -151 92 -244.5t242 -93.5q98 0 188.5 47.5t149 130t61.5 177.5v678q0 29 20.5 49t49.5 20t49.5 -20t20.5 -49v-1080q0 -29 -20.5 -49t-49.5 -20t-49.5 20t-20.5 49v176q-28 -93 -142.5 -178.5t-256.5 -85.5 q-218 0 -345.5 130.5t-127.5 342.5zM338 1481q0 37 27.5 63.5t64.5 26.5t63.5 -26.5t26.5 -63.5q0 -38 -26.5 -65t-63.5 -27t-64.5 27t-27.5 65zM743 1481q0 37 27.5 63.5t65.5 26.5q37 0 62.5 -26.5t25.5 -63.5q0 -38 -25.5 -65t-62.5 -27q-38 0 -65.5 27t-27.5 65z" />
<glyph unicode="&#xfd;" horiz-adv-x="1196" d="M28 1157q9 27 35 39t54.5 2.5t40.5 -35.5l440 -958l440 958q12 26 40.5 35.5t54.5 -2.5t35 -39t-3 -53l-663 -1432q-12 -26 -40 -35t-54 3t-35.5 39t2.5 53l147 317l-491 1055q-12 26 -3 53zM422 1401q-6 14 1 28.5t21 22.5l254 121q26 11 52.5 -1t33.5 -38 q9 -27 -2.5 -53t-38.5 -33l-272 -70q-15 -4 -29 2.5t-20 20.5z" />
<glyph unicode="&#xfe;" horiz-adv-x="1464" d="M123 -295v1778q0 29 20.5 49t49.5 20t49 -20t20 -49v-537q38 57 83.5 104t105.5 86.5t137 62t164 22.5q102 0 198 -31.5t173.5 -89.5t136 -135.5t90.5 -173t32 -197.5q0 -128 -50 -244.5t-134.5 -201t-201 -134t-244.5 -49.5q-86 0 -163.5 22.5t-137.5 62.5t-105.5 86.5 t-83.5 103.5v-535q0 -30 -20 -51t-49 -21t-49.5 21.5t-20.5 50.5zM262 594q0 -100 39 -191.5t105 -157.5t156.5 -105.5t189.5 -39.5q202 0 344.5 145t142.5 349q0 133 -65 246t-177 179t-245 66q-201 0 -345.5 -144.5t-144.5 -346.5z" />
<glyph unicode="&#xff;" horiz-adv-x="1196" d="M28 1157q9 27 35 39t54.5 2.5t40.5 -35.5l440 -958l440 958q12 26 40.5 35.5t54.5 -2.5t35 -39t-3 -53l-663 -1432q-12 -26 -40 -35t-54 3t-35.5 39t2.5 53l147 317l-491 1055q-12 26 -3 53zM303 1481q0 37 27.5 63.5t64.5 26.5t63.5 -26.5t26.5 -63.5q0 -38 -26.5 -65 t-63.5 -27t-64.5 27t-27.5 65zM709 1481q0 37 27 63.5t65 26.5q37 0 62.5 -26.5t25.5 -63.5q0 -38 -25.5 -65t-62.5 -27q-38 0 -65 27t-27 65z" />
<glyph unicode="&#x152;" horiz-adv-x="2725" d="M72 768q0 163 63.5 311.5t170.5 256t256 171.5t312 64q205 0 380.5 -101.5t281.5 -267.5v264q0 29 20.5 49.5t49.5 20.5h979q29 0 49 -20.5t20 -49.5t-20 -49t-49 -20h-910v-561h768q29 0 49.5 -20.5t20.5 -49.5t-20.5 -49.5t-49.5 -20.5h-768v-557h910q28 -2 48.5 -22 t20.5 -47q0 -29 -20.5 -49.5t-48.5 -20.5h-979q-29 0 -49.5 20.5t-20.5 49.5v264q-105 -168 -280.5 -268.5t-381.5 -100.5q-163 0 -312 64t-256 171.5t-170.5 256t-63.5 311.5zM215 768q0 -181 87.5 -334.5t239.5 -243.5t332 -90q135 0 258 53t211 143t140.5 213.5 t52.5 258.5t-52.5 258.5t-140.5 213.5t-211 143t-258 53q-180 0 -332 -90t-239.5 -243.5t-87.5 -334.5z" />
<glyph unicode="&#x153;" horiz-adv-x="2533" d="M82 594q0 170 84.5 314.5t229.5 228.5t315 84q180 0 330 -93t229 -247q80 154 228.5 247t326.5 93q168 0 311 -83t227.5 -227.5t87.5 -316.5q0 -29 -21 -49.5t-50 -20.5h-1034q27 -181 162 -302.5t317 -121.5q121 0 224 56t169 153q21 35 59 35q43 0 63 -38.5t-3 -72.5 q-75 -113 -214 -190.5t-298 -77.5q-179 0 -327 92.5t-226 247.5q-79 -154 -229.5 -247t-331.5 -93q-170 0 -315 84t-229.5 229t-84.5 316zM225 594q0 -134 65 -247.5t177 -180t244 -66.5q134 0 247 66.5t178.5 180t65.5 247.5q0 133 -65.5 246t-178.5 179t-247 66 q-132 0 -244 -66t-177 -179t-65 -246zM1346 664h960q-27 179 -162.5 300t-318.5 121q-182 0 -317 -121t-162 -300z" />
<glyph unicode="&#x178;" horiz-adv-x="1282" d="M38.5 1513q19.5 39 61.5 39q37 0 58 -28l483 -680l483 680q21 28 58 28q42 0 61.5 -39t-4.5 -71l-528 -740v-649q0 -29 -20.5 -49t-49.5 -20t-49.5 20t-20.5 49v649l-528 740q-24 32 -4.5 71zM344 1712q0 37 27.5 63.5t64.5 26.5t63.5 -26.5t26.5 -63.5q0 -38 -26.5 -65 t-63.5 -27t-64.5 27t-27.5 65zM752 1712q0 37 26 63.5t64 26.5q37 0 62.5 -26.5t25.5 -63.5q0 -38 -25.5 -65t-62.5 -27q-38 0 -64 27t-26 65z" />
<glyph unicode="&#x2c6;" horiz-adv-x="821" d="M210 1386.5q-14 28.5 7 51.5q26 29 66 75q71 80 89 96.5t38 16.5t37.5 -15.5t82.5 -90.5q43 -49 72 -82q21 -23 7.5 -51.5t-44.5 -28.5q-19 0 -39 20l-116 131l-117 -131q-20 -20 -39 -20q-30 0 -44 28.5z" />
<glyph unicode="&#x2dc;" horiz-adv-x="872" d="M205 1425q2 62 42.5 104t100.5 42q76 0 125 -74q31 -35 53 -35q25 0 42.5 19t17.5 45q0 17 12 29t29 12t29 -12t12 -29q-1 -61 -43 -103.5t-99 -42.5q-74 0 -123 74q-1 1 -6 6.5t-6 7t-5.5 6t-6.5 6t-6.5 4.5t-8 4t-7.5 2t-9 1q-26 0 -43.5 -19.5t-17.5 -46.5 q0 -17 -12 -29t-29 -12t-29 12t-12 29z" />
<glyph unicode="&#x2000;" horiz-adv-x="946" />
<glyph unicode="&#x2001;" horiz-adv-x="1892" />
<glyph unicode="&#x2002;" horiz-adv-x="946" />
<glyph unicode="&#x2003;" horiz-adv-x="1892" />
<glyph unicode="&#x2004;" horiz-adv-x="630" />
<glyph unicode="&#x2005;" horiz-adv-x="473" />
<glyph unicode="&#x2006;" horiz-adv-x="315" />
<glyph unicode="&#x2007;" horiz-adv-x="315" />
<glyph unicode="&#x2008;" horiz-adv-x="236" />
<glyph unicode="&#x2009;" horiz-adv-x="378" />
<glyph unicode="&#x200a;" horiz-adv-x="105" />
<glyph unicode="&#x2010;" horiz-adv-x="952" d="M131 592q0 29 19.5 49.5t48.5 20.5h557q29 0 49 -20.5t20 -49.5t-20 -48.5t-49 -19.5h-557q-29 0 -48.5 19.5t-19.5 48.5z" />
<glyph unicode="&#x2011;" horiz-adv-x="952" d="M131 592q0 29 19.5 49.5t48.5 20.5h557q29 0 49 -20.5t20 -49.5t-20 -48.5t-49 -19.5h-557q-29 0 -48.5 19.5t-19.5 48.5z" />
<glyph unicode="&#x2012;" horiz-adv-x="952" d="M131 592q0 29 19.5 49.5t48.5 20.5h557q29 0 49 -20.5t20 -49.5t-20 -48.5t-49 -19.5h-557q-29 0 -48.5 19.5t-19.5 48.5z" />
<glyph unicode="&#x2013;" horiz-adv-x="1196" d="M78 592q0 29 20 48t49 19h904q28 0 47.5 -19t19.5 -48t-19.5 -49.5t-47.5 -20.5h-904q-29 0 -49 20.5t-20 49.5z" />
<glyph unicode="&#x2014;" horiz-adv-x="1720" d="M78 592q0 29 20 48t49 19h1428q28 0 47.5 -19t19.5 -48t-19.5 -49.5t-47.5 -20.5h-1428q-29 0 -49 20.5t-20 49.5z" />
<glyph unicode="&#x2018;" horiz-adv-x="413" d="M102 1235v137q0 71 44.5 123t111.5 55q19 0 30 -11t11 -30t-11 -30t-30 -11q-27 0 -48.5 -26.5t-21.5 -59.5v-45q6 4 19 4q44 0 74 -31t30 -75q0 -43 -30 -74t-74 -31q-43 0 -74 31t-31 74z" />
<glyph unicode="&#x2019;" horiz-adv-x="413" d="M102 1446q0 43 30.5 73.5t74.5 30.5q43 0 73.5 -30.5t30.5 -73.5v-137q0 -72 -44 -124t-111 -55q-19 0 -30 11t-11 30t11 30t30 11q27 0 48 26.5t21 59.5v45q-6 -4 -18 -4q-44 0 -74.5 31.5t-30.5 75.5z" />
<glyph unicode="&#x201a;" horiz-adv-x="413" d="M102 90q0 43 30.5 74t74.5 31q43 0 73.5 -31t30.5 -74v-137q0 -71 -44 -123t-111 -55q-19 0 -30 11t-11 30t11 30t30 11q27 0 48 26.5t21 59.5v45q-6 -4 -18 -4q-44 0 -74.5 31t-30.5 75z" />
<glyph unicode="&#x201c;" horiz-adv-x="622" d="M102 1235v137q0 71 44.5 123t111.5 55q19 0 30 -11t11 -30t-11 -30t-30 -11q-27 0 -48.5 -26.5t-21.5 -59.5v-45q6 4 19 4q44 0 74 -31t30 -75q0 -43 -30 -74t-74 -31q-43 0 -74 31t-31 74zM352 1235v137q0 71 44.5 123t111.5 55q19 0 30 -11t11 -30t-11 -30t-30 -11 q-27 0 -48.5 -26.5t-21.5 -59.5v-45q6 4 19 4q44 0 74 -31t30 -75q0 -43 -30 -74t-74 -31q-43 0 -74 31t-31 74z" />
<glyph unicode="&#x201d;" horiz-adv-x="622" d="M61 1446q0 43 30.5 73.5t74.5 30.5q43 0 73.5 -30.5t30.5 -73.5v-137q0 -72 -44 -124t-111 -55q-19 0 -30 11t-11 30t11 30t30 11q27 0 48 26.5t21 59.5v45q-6 -4 -18 -4q-44 0 -74.5 31.5t-30.5 75.5zM311 1446q0 43 30.5 73.5t74.5 30.5q43 0 73.5 -30.5t30.5 -73.5 v-137q0 -72 -44 -124t-111 -55q-19 0 -30 11t-11 30t11 30t30 11q27 0 48 26.5t21 59.5v45q-6 -4 -18 -4q-44 0 -74.5 31.5t-30.5 75.5z" />
<glyph unicode="&#x201e;" horiz-adv-x="622" d="M61 90q0 43 30.5 74t74.5 31q43 0 73.5 -31t30.5 -74v-137q0 -71 -44 -123t-111 -55q-19 0 -30 11t-11 30t11 30t30 11q27 0 48 26.5t21 59.5v45q-6 -4 -18 -4q-44 0 -74.5 31t-30.5 75zM311 90q0 43 30.5 74t74.5 31q43 0 73.5 -31t30.5 -74v-137q0 -71 -44 -123 t-111 -55q-19 0 -30 11t-11 30t11 30t30 11q27 0 48 26.5t21 59.5v45q-6 -4 -18 -4q-44 0 -74.5 31t-30.5 75z" />
<glyph unicode="&#x2022;" horiz-adv-x="827" d="M205 594q0 86 61.5 147.5t147.5 61.5q87 0 148 -61t61 -148q0 -88 -60.5 -148.5t-148.5 -60.5q-87 0 -148 61t-61 148z" />
<glyph unicode="&#x2026;" horiz-adv-x="1587" d="M82 88q0 43 31 74t75 31q43 0 74 -31t31 -74t-31 -73.5t-74 -30.5q-44 0 -75 30.5t-31 73.5zM690 88q0 43 30.5 74t74.5 31q43 0 73.5 -31t30.5 -74t-30.5 -73.5t-73.5 -30.5q-44 0 -74.5 30.5t-30.5 73.5zM1296 88q0 43 31 74t72 31q44 0 75 -31t31 -74t-31 -73.5 t-75 -30.5q-41 0 -72 31t-31 73z" />
<glyph unicode="&#x202f;" horiz-adv-x="378" />
<glyph unicode="&#x2039;" horiz-adv-x="534" d="M66 594q0 30 26.5 59t151.5 139l104 91q35 32 78 11t43 -67q0 -24 -31 -59l-202 -174l202 -176q31 -27 31 -58q0 -45 -43 -65.5t-78 10.5q-222 196 -237 211q-41 40 -44 65q-1 6 -1 13z" />
<glyph unicode="&#x203a;" horiz-adv-x="534" d="M66 360q0 32 30 58l203 176l-203 174q-30 34 -30 59q0 46 42.5 67t77.5 -11q225 -198 234 -208q44 -42 48 -67q1 -6 1 -14q0 -30 -23.5 -56t-148.5 -135q-68 -60 -111 -98q-35 -31 -77.5 -10.5t-42.5 65.5z" />
<glyph unicode="&#x205f;" horiz-adv-x="473" />
<glyph unicode="&#x20ac;" horiz-adv-x="1482" d="M55 627q0 29 20.5 49t49.5 20h125q0 3 -3 30t-3 42q0 1 6 70h-125q-29 0 -49.5 20t-20.5 49t20.5 49.5t49.5 20.5h143q28 130 81.5 237.5t130.5 187.5t182 124.5t229 44.5q294 0 491 -285q28 -32 13 -73.5t-64 -41.5q-39 0 -59 33q-150 232 -381 232q-187 0 -306.5 -124 t-172.5 -335h792q29 0 49.5 -20.5t20.5 -49.5t-20.5 -49t-49.5 -20h-815q-4 -23 -4 -70t4 -72h641q29 0 49.5 -20t20.5 -49t-20.5 -49.5t-49.5 -20.5h-618q53 -211 172.5 -334t306.5 -123q231 0 381 232q20 33 59 33q49 0 64 -41.5t-13 -73.5q-197 -285 -491 -285 q-244 0 -404.5 162t-218.5 430h-143q-29 0 -49.5 20.5t-20.5 49.5z" />
<glyph unicode="&#x2122;" horiz-adv-x="739" d="M82 1507v29h242v-29h-107v-278h-29v278h-106zM350 1229v307h29l125 -270l125 270h28v-307h-28v241l-111 -241h-26l-113 241v-241h-29z" />
<glyph unicode="&#x25fc;" horiz-adv-x="1198" d="M0 0v1198h1198v-1198h-1198z" />
<glyph unicode="&#xfb01;" horiz-adv-x="1073" d="M25 1116q0 29 20 49.5t49 20.5h86v114q0 127 79 199t200 72q100 0 180 -64q25 -21 25 -53q0 -29 -20.5 -49.5t-49.5 -20.5q-25 0 -45 17q-44 35 -90 35q-62 0 -101 -32.5t-39 -103.5v-114h562q29 0 50 -20.5t21 -49.5v-1063q0 -29 -21 -49t-50 -20t-48.5 20t-19.5 49v994 h-494v-994q0 -29 -20 -49t-49 -20t-49.5 20t-20.5 49v994h-86q-29 0 -49 20t-20 49zM788 1479q0 37 28 64.5t65 27.5q38 0 64 -27.5t26 -64.5t-26 -63.5t-64 -26.5q-37 0 -65 27t-28 63z" />
<glyph unicode="&#xfb02;" horiz-adv-x="1058" d="M25 1116q0 29 20 49.5t49 20.5h86v80q0 127 79 198.5t198 71.5h409q29 0 49.5 -20.5t20.5 -49.5v-1413q0 -29 -21 -49t-51 -20q-29 0 -48 20t-19 49v1344h-340q-63 0 -101.5 -31t-38.5 -100v-80h193q29 0 49.5 -20.5t20.5 -49.5t-20.5 -49t-49.5 -20h-191v-994 q0 -29 -20 -49t-49 -20t-49.5 20t-20.5 49v994h-86q-29 0 -49 20t-20 49z" />
<glyph unicode="&#xfb03;" horiz-adv-x="1705" d="M25 1116q0 29 20 49.5t49 20.5h86v114q0 127 79 199t200 72q100 0 180 -64q25 -21 25 -53q0 -29 -20.5 -49.5t-49.5 -20.5q-25 0 -45 17q-44 35 -90 35q-62 0 -101 -32.5t-39 -103.5v-114h492v114q0 127 79 199t200 72q100 0 180 -64q24 -21 24 -53q0 -29 -20 -49.5 t-49 -20.5q-25 0 -45 17q-44 35 -90 35q-62 0 -101 -32.5t-39 -103.5v-114h563q29 0 49.5 -20.5t20.5 -49.5v-1063q0 -29 -20.5 -49t-49.5 -20t-49 20t-20 49v994h-494v-994q0 -29 -20 -49t-49 -20t-49.5 20t-20.5 49v994h-492v-994q0 -29 -20 -49t-49 -20t-49.5 20 t-20.5 49v994h-86q-29 0 -49 20t-20 49zM1419 1479q0 37 27.5 64.5t64.5 27.5q38 0 64.5 -27.5t26.5 -64.5t-26.5 -63.5t-64.5 -26.5q-37 0 -64.5 26.5t-27.5 63.5z" />
<glyph unicode="&#xfb04;" horiz-adv-x="1671" d="M25 1116q0 29 20 49.5t49 20.5h86v114q0 127 79 199t200 72q100 0 180 -64q25 -21 25 -53q0 -29 -20.5 -49.5t-49.5 -20.5q-25 0 -45 17q-44 35 -90 35q-62 0 -101 -32.5t-39 -103.5v-114h474v80q0 127 78.5 198.5t197.5 71.5h410q29 0 49 -20.5t20 -49.5v-1413 q0 -29 -20 -49t-49 -20t-49.5 20t-20.5 49v1344h-340q-63 0 -101 -31t-38 -100v-80h2h190q29 0 49.5 -20.5t20.5 -49.5t-20.5 -49t-49.5 -20h-190v-994q0 -29 -20.5 -49t-49.5 -20t-49 20t-20 49v994h-474v-994q0 -29 -20 -49t-49 -20t-49.5 20t-20.5 49v994h-86 q-29 0 -49 20t-20 49z" />
</font>
</defs>
</svg>
